<svg width="76" height="76" viewBox="0 0 76 76" fill="none" xmlns="http://www.w3.org/2000/svg">
<rect x="0.0898438" y="0.423828" width="75.1523" height="75.1523" rx="37.5762" fill="#F4E5E6"/>
<g clip-path="url(#clip0_725_12393)">
<path d="M45.3103 18.4068C38.7117 18.4068 33.3625 21.3567 33.3625 25.0008C33.3625 28.6449 38.7133 31.5963 45.3103 31.5963C51.9089 31.5963 57.2581 28.6449 57.2581 25.0008C57.2581 21.3567 51.9074 18.4068 45.3103 18.4068ZM57.2581 26.9597C57.2551 30.6039 51.9089 33.5553 45.3103 33.5553C38.7301 33.5553 33.3931 30.636 33.3625 27.0087V29.5885C33.3625 31.1452 34.3596 32.5705 35.9928 33.699C37.6444 34.1486 39.1155 34.7725 40.3404 35.5616C41.8589 35.947 43.5288 36.1825 45.3103 36.1825C51.9089 36.1825 57.2581 33.2326 57.2581 29.5885V26.9597ZM57.2581 31.5474C57.2581 35.1915 51.9089 38.1429 45.3103 38.1429C44.5075 38.1429 43.7276 38.0833 42.9691 37.9992C43.5676 38.8053 43.9759 39.7364 44.1634 40.7227C44.5442 40.7441 44.9204 40.7701 45.3103 40.7701C51.9089 40.7701 57.2581 37.8203 57.2581 34.1761V31.5474ZM30.0181 35.2267C23.4195 35.2267 18.0703 38.1781 18.0703 41.8222C18.0703 45.4664 23.4211 48.4178 30.0181 48.4178C36.6167 48.4178 41.9659 45.4664 41.9659 41.8222C41.9659 38.1781 36.6152 35.2267 30.0181 35.2267ZM57.2581 36.1351C57.2551 39.7792 51.9089 42.7306 45.3103 42.7306C44.9265 42.7306 44.5381 42.7031 44.1634 42.6817C44.1466 42.7964 44.1374 42.9493 44.116 43.064C44.1925 43.2949 44.2582 43.5227 44.2582 43.7827V45.3119C44.6054 45.3288 44.954 45.3578 45.3103 45.3578C51.9089 45.3578 57.2581 42.4079 57.2581 38.7638V36.1351ZM57.2581 40.7227C57.2551 44.3669 51.9089 47.3183 45.3103 47.3183C44.9265 47.3183 44.5381 47.2907 44.1634 47.2693C44.1466 47.384 44.1374 47.5369 44.116 47.6516C44.1925 47.881 44.2582 48.1104 44.2582 48.3704V49.8996C44.6054 49.9164 44.954 49.9455 45.3103 49.9455C51.9089 49.9455 57.2581 46.9956 57.2581 43.3515V40.7227ZM41.9659 43.7812C41.9629 47.4253 36.6167 50.3767 30.0181 50.3767C23.4379 50.3767 18.1009 47.4574 18.0703 43.8286V46.4099C18.0703 50.054 23.418 53.0054 30.0181 53.0054C36.6182 53.0054 41.9659 50.054 41.9659 46.4099V43.7812ZM41.9659 48.3688C41.9629 52.013 36.6167 54.9644 30.0181 54.9644C23.4379 54.9644 18.1009 52.0451 18.0703 48.4163V50.9976C18.0703 54.6417 23.418 57.5931 30.0181 57.5931C36.6182 57.5931 41.9659 54.6417 41.9659 50.9976V48.3688Z" fill="#AD1F24"/>
<g clip-path="url(#clip1_725_12393)">
<path fill-rule="evenodd" clip-rule="evenodd" d="M24.6857 19.9896C22.8535 20.6839 21.3721 22.0776 20.5675 23.8641C19.7629 25.6506 19.7009 27.6836 20.3952 29.5158C21.0895 31.348 22.4832 32.8294 24.2697 33.634C26.0562 34.4386 28.0892 34.5006 29.9214 33.8063L29.9254 33.8048C30.8228 33.4568 31.6448 32.9392 32.3464 32.2802C32.4181 32.2129 32.4695 32.1269 32.4949 32.0319C32.5203 31.9369 32.5187 31.8367 32.4902 31.7426C32.4617 31.6485 32.4075 31.5642 32.3336 31.4993C32.2598 31.4343 32.1693 31.3913 32.0723 31.3751C30.8983 31.178 29.7959 30.6788 28.8733 29.9266C27.9506 29.1744 27.2396 28.1951 26.8101 27.0849C26.3942 25.9726 26.2741 24.7714 26.4617 23.5988C26.6492 22.4262 27.1379 21.3224 27.88 20.3953C27.9414 20.3188 27.9803 20.2266 27.9922 20.1292C28.0042 20.0317 27.9887 19.9329 27.9475 19.8438C27.9064 19.7547 27.8412 19.6788 27.7593 19.6247C27.6774 19.5706 27.582 19.5404 27.4839 19.5376C26.533 19.5089 25.5854 19.6615 24.6916 19.9873L24.6857 19.9896Z" fill="#AD1F24"/>
</g>
</g>
<defs>
<clipPath id="clip0_725_12393">
<rect width="39.7598" height="39.7598" fill="white" transform="translate(17.7852 18.1201)"/>
</clipPath>
<clipPath id="clip1_725_12393">
<rect width="14.7755" height="14.7755" fill="white" transform="translate(15.8008 23.3555) rotate(-20.7537)"/>
</clipPath>
</defs>
</svg>
