<svg width="64" height="64" viewBox="0 0 64 64" fill="none" xmlns="http://www.w3.org/2000/svg">
<path d="M11.7712 37.7855C11.3384 37.5305 10.8768 37.3217 10.3861 37.1598C9.8954 36.9975 9.4838 36.9162 9.15161 36.9162C8.88871 36.9162 8.68212 36.9646 8.53153 37.0611C8.38094 37.1575 8.30564 37.2986 8.30564 37.484C8.30564 37.6618 8.37145 37.8105 8.50274 37.9304C8.63403 38.0503 8.79633 38.1468 8.98963 38.2202C9.18293 38.2936 9.46862 38.3882 9.84731 38.504C10.4114 38.6663 10.8768 38.8286 11.2441 38.9909C11.6111 39.1532 11.9259 39.4025 12.1888 39.7385C12.4517 40.0748 12.583 40.5133 12.583 41.054C12.583 41.5949 12.44 42.0565 12.154 42.439C11.868 42.8215 11.476 43.1094 10.9774 43.3024C10.4791 43.4957 9.9245 43.5922 9.31423 43.5922C8.64194 43.5922 7.97156 43.4742 7.30307 43.2385C6.63458 43.0028 6.05721 42.6801 5.57031 42.2707L6.39319 40.6132C6.80289 40.9764 7.28757 41.2738 7.84786 41.5057C8.40815 41.7376 8.90453 41.8534 9.33732 41.8534C9.65401 41.8534 9.90331 41.7955 10.0849 41.6794C10.2665 41.5636 10.3573 41.3934 10.3573 41.1694C10.3573 40.984 10.2896 40.8293 10.1545 40.7056C10.0191 40.5819 9.84921 40.4835 9.64452 40.4101C9.43983 40.3367 9.15193 40.2497 8.78115 40.1495C8.22465 39.9947 7.76497 39.8385 7.40177 39.68C7.03858 39.5215 6.72759 39.282 6.4688 38.9612C6.21001 38.6404 6.08062 38.2136 6.08062 37.6805C6.08062 37.1781 6.21381 36.7377 6.48051 36.359C6.74721 35.9803 7.12558 35.6886 7.61627 35.484C8.10696 35.2793 8.67674 35.1768 9.32593 35.1768C9.91312 35.1768 10.4927 35.26 11.0644 35.4261C11.6361 35.5921 12.1385 35.8142 12.5713 36.0923L11.7712 37.7855Z" fill="#AF1F23"/>
<path d="M19.9852 35.1787V40.0922C19.9852 40.6095 19.8437 41.0214 19.5631 41.3277C19.28 41.6314 18.912 41.7858 18.4565 41.7858C17.9933 41.7858 17.6095 41.6314 17.3084 41.3226C17.0072 41.0138 16.8553 40.6019 16.8553 40.0922V35.1787H14.7344V40.0922C14.7344 40.7974 14.8862 41.4128 15.1925 41.943C15.4987 42.4707 15.9312 42.8798 16.4896 43.1658C17.0508 43.4515 17.7019 43.5932 18.4432 43.5932C19.1844 43.5932 19.833 43.4518 20.3838 43.1658C20.9371 42.8801 21.362 42.4707 21.6603 41.943C21.9565 41.4128 22.1058 40.7977 22.1058 40.0922V35.1787H19.9852Z" fill="#AF1F23"/>
<path d="M33.5615 35.1787V43.5929H31.6823L31.6721 38.1567L29.5974 42.4913H28.2307L26.1433 38.1567V43.5929H24.2539V35.1787H26.5602L28.9128 39.9299L31.2552 35.1787H33.5615Z" fill="#AF1F23"/>
<path d="M45.0182 35.1787V43.5929H43.1418L43.1289 38.1567L41.0544 42.4913H39.6874L37.6 38.1567V43.5929H35.7109V35.1787H38.017L40.3723 39.9299L42.7119 35.1787H45.0182Z" fill="#AF1F23"/>
<path d="M49.2889 35.1787H47.168V43.5929H49.2889V35.1787Z" fill="#AF1F23"/>
<path d="M58.4049 35.1787V36.9289H55.9701V43.5929H53.8492V36.9289H51.4375V35.1787H58.4049Z" fill="#AF1F23"/>
<path d="M17.5254 55.1847C18.1524 55.1926 18.6425 55.0742 18.9965 54.8291C19.3502 54.5839 19.5271 54.2403 19.5271 53.7983C19.5271 53.3722 19.3502 53.0387 18.9965 52.7977C18.6428 52.5566 18.1524 52.436 17.5254 52.436H15.1381V55.185H17.5254V55.1847ZM17.5254 51.3866C18.0477 51.3866 18.4517 51.2762 18.7371 51.0551C19.0224 50.834 19.1651 50.5185 19.1651 50.1085C19.1651 49.7067 19.0224 49.3973 18.7371 49.1803C18.4517 48.9633 18.0477 48.8589 17.5254 48.8668H15.1381V51.3866H17.5254ZM17.5855 47.8057C18.4457 47.8057 19.1227 47.9926 19.6169 48.3663C20.1114 48.7399 20.3585 49.2565 20.3585 49.9155C20.3585 50.398 20.2218 50.8058 19.9485 51.1392C19.6751 51.473 19.3015 51.6961 18.8272 51.8084C19.4138 51.897 19.8741 52.132 20.2079 52.5139C20.5413 52.8957 20.7084 53.3719 20.7084 53.9426C20.7084 54.6661 20.4373 55.2305 19.8944 55.6368C19.3518 56.0427 18.6023 56.2455 17.6459 56.2455H13.9805V47.8057H17.5855Z" fill="#AF1F23"/>
<path d="M25.0563 53.1469H28.6009L26.8165 49.0474L25.0563 53.1469ZM29.9391 56.2455L29.0469 54.1957H24.5978L23.7177 56.2455H22.5L26.2496 47.8057H27.4553L31.1929 56.2455H29.9391Z" fill="#AF1F23"/>
<path d="M39.52 47.8057H40.6653V56.2455H39.496L34.6732 49.7108V56.2455H33.5156V47.8057H34.6852L39.52 54.3526V47.8057Z" fill="#AF1F23"/>
<path d="M49.9916 56.2455H48.5929L45.6269 52.3513L44.0717 54.0391V56.2455H42.9141V47.8057H44.0717V52.5439L48.3879 47.8057H49.7742L46.4346 51.4471L49.9916 56.2455Z" fill="#AF1F23"/>
<path d="M50.5092 11.2909L47.9036 9.30629C47.8612 9.27877 47.8188 9.25092 47.7783 9.2196L45.8178 7.72697C45.1066 7.27741 44.1613 7.40459 43.6048 8.04018L43.2675 8.47677L42.9486 8.89153L37.1717 16.3838C36.5766 17.1576 35.4893 17.3734 34.6879 16.7634L32.7255 15.2708C32.0162 14.8212 31.0708 14.9465 30.5144 15.5805L28.0321 18.8015C28.01 18.8309 27.9859 18.8603 27.9622 18.8863L27.8736 19.0043L27.8698 18.9859C27.8366 19.0191 27.7999 19.0505 27.7629 19.0818C27.7335 19.1058 27.704 19.1296 27.6743 19.1517C27.549 19.2419 27.4146 19.314 27.2706 19.3672C27.2374 19.3801 27.2061 19.3893 27.1748 19.4004C27.1675 19.4023 27.1583 19.4042 27.1507 19.4076C27.1064 19.4206 27.0606 19.4317 27.0144 19.4409C27.0033 19.4428 26.9884 19.4462 26.9758 19.4462C26.9444 19.4535 26.9112 19.4592 26.878 19.4627C26.8631 19.4646 26.8505 19.4646 26.8356 19.4665C26.8207 19.4684 26.8081 19.4703 26.7932 19.4703C26.7673 19.4741 26.7417 19.4741 26.7141 19.4741C26.705 19.476 26.6958 19.476 26.6847 19.476H26.6664C26.6388 19.476 26.611 19.476 26.5835 19.4741C26.5319 19.4722 26.4784 19.4687 26.4269 19.4611C26.4009 19.4573 26.3734 19.4538 26.3478 19.4481C26.3237 19.4443 26.2962 19.439 26.2703 19.4317C26.2443 19.4263 26.2168 19.4187 26.1927 19.4114C26.1412 19.3966 26.0915 19.382 26.0399 19.3599C25.8925 19.3045 25.7524 19.2254 25.6198 19.1239C24.8735 18.549 24.7352 17.4655 25.3085 16.721L27.3171 14.1154C27.3431 14.0879 27.3649 14.0601 27.387 14.0325L28.4393 12.6671L29.8712 10.8116C30.4258 10.1776 31.3711 10.0504 32.0807 10.4984L34.0431 11.9929C34.2532 12.1514 34.4835 12.2564 34.7195 12.3061C35.3811 12.4497 36.0888 12.1846 36.5273 11.6133L37.7178 10.071L38.2246 9.40563L38.9339 8.47677H23.0661C21.8038 8.47677 20.7812 9.49959 20.7812 10.76V28.6801C20.7812 29.9424 21.8041 30.9649 23.0661 30.9649H40.9862C42.2466 30.9649 43.2694 29.9421 43.2694 28.6801V19.6842L42.9432 20.1043L42.9173 20.1375V20.1192L42.3867 20.8066L41.3364 22.1683L41.2959 22.2218L38.3236 26.0786C37.7358 26.7069 36.7962 26.8765 36.059 26.3918L34.1131 24.9103C34.0412 24.8568 33.9656 24.8071 33.8881 24.7666C33.1602 24.3705 32.2297 24.5455 31.7099 25.2181C31.4834 25.511 31.2566 25.8059 31.03 26.1008C30.4147 26.8967 29.8009 27.6911 29.1891 28.4871C28.5921 29.1192 27.5971 29.2075 26.8967 28.6697C26.7309 28.5406 26.5926 28.3859 26.4895 28.2163C26.331 27.9585 26.2443 27.6671 26.2332 27.3722C26.2294 27.3004 26.2313 27.2248 26.2386 27.1511C26.2459 27.0755 26.257 26.9999 26.2753 26.9246C26.2845 26.8749 26.2994 26.8249 26.3158 26.7772C26.3177 26.768 26.3212 26.7607 26.3231 26.7512C26.3304 26.7329 26.338 26.7145 26.3433 26.6978C26.3525 26.6756 26.3617 26.6535 26.3709 26.6332C26.3819 26.6038 26.3949 26.5759 26.4095 26.5484C26.4243 26.519 26.4389 26.4877 26.4557 26.4598C26.4942 26.3934 26.5385 26.3289 26.5866 26.2646L28.5453 23.7236L28.5544 23.7144L28.6098 23.6426C28.6263 23.6223 28.6411 23.6056 28.656 23.5872V23.5834C29.4612 22.5369 30.2682 21.49 31.0772 20.4453C31.6501 19.6971 32.7302 19.5665 33.48 20.1356L35.4241 21.6172C36.1631 22.1019 37.1027 21.9323 37.6887 21.304L42.9477 14.4843L43.2682 14.068L44.1436 12.9328L44.1584 12.9145L44.1676 12.9015C44.7424 12.1552 45.8206 12.0226 46.5704 12.5937L48.5164 14.0752C49.2608 14.5599 50.2669 14.4068 50.8161 13.6937C51.3938 12.9474 51.2593 11.8622 50.5092 11.2909ZM25.9627 21.0904C25.9609 21.1217 25.9574 21.1512 25.9517 21.1825C25.9498 21.21 25.9463 21.2378 25.9406 21.2654C25.9352 21.3021 25.9257 21.341 25.9147 21.3777C25.9109 21.4036 25.9036 21.4292 25.8944 21.4552C25.8871 21.4792 25.8795 21.503 25.8723 21.527C25.8685 21.54 25.865 21.5492 25.8593 21.5621C25.839 21.6118 25.8188 21.6599 25.7967 21.7077C25.7802 21.7428 25.7615 21.7776 25.7394 21.8127C25.721 21.8478 25.6989 21.881 25.6767 21.9158C25.6565 21.9452 25.6363 21.9747 25.6122 22.0044C25.5863 22.0395 25.5568 22.0743 25.5274 22.1094L24.8216 22.8982C24.4825 23.2778 24.0073 23.4657 23.5337 23.46C23.1284 23.4543 22.7228 23.3088 22.4023 23.0158C21.7057 22.3837 21.656 21.2986 22.2862 20.5962L22.9901 19.8075C23.6166 19.1055 24.7112 19.0574 25.4097 19.6914C25.4945 19.767 25.5701 19.8499 25.6363 19.9401C25.7451 20.0894 25.8299 20.2533 25.883 20.4248C25.8979 20.4691 25.9105 20.5115 25.92 20.5558C25.9311 20.5981 25.9403 20.6424 25.9476 20.6883C25.9476 20.6902 25.9495 20.6937 25.9495 20.6956C25.9533 20.7399 25.9586 20.7842 25.9624 20.8281C25.9643 20.8484 25.9662 20.8686 25.9662 20.8889C25.9681 20.9129 25.9681 20.9367 25.9681 20.9645C25.9684 21.0075 25.9665 21.0499 25.9627 21.0904Z" fill="#C6B07D"/>
</svg>
