<svg width="50" height="51" viewBox="0 0 50 51" fill="none" xmlns="http://www.w3.org/2000/svg">
<rect y="0.5" width="50" height="50" rx="25" fill="#F4E5E6"/>
<g clip-path="url(#clip0_725_12828)">
<path d="M12.2082 14.4398C12.0711 14.2367 12 13.993 12 13.7492C12 13.0586 12.5586 12.5 13.2492 12.5H18.7996C19.3684 12.5 19.9016 12.7996 20.191 13.2871L23.6695 19.0813C21.2219 19.391 19.0332 20.5336 17.4031 22.2246L12.2082 14.4398ZM37.7867 14.4398L32.5969 22.2246C30.9668 20.5336 28.7781 19.391 26.3305 19.0813L29.809 13.2871C30.1035 12.7996 30.6316 12.5 31.2004 12.5H36.7508C37.4414 12.5 38 13.0586 38 13.7492C38 13.993 37.9289 14.2367 37.7918 14.4398H37.7867ZM16.0625 29.5625C16.0625 27.1921 17.0041 24.9188 18.6802 23.2427C20.3563 21.5666 22.6296 20.625 25 20.625C27.3704 20.625 29.6437 21.5666 31.3198 23.2427C32.9959 24.9188 33.9375 27.1921 33.9375 29.5625C33.9375 31.9329 32.9959 34.2062 31.3198 35.8823C29.6437 37.5584 27.3704 38.5 25 38.5C22.6296 38.5 20.3563 37.5584 18.6802 35.8823C17.0041 34.2062 16.0625 31.9329 16.0625 29.5625ZM25.4266 24.7434C25.2539 24.3879 24.7512 24.3879 24.5734 24.7434L23.4359 27.0488C23.3648 27.191 23.2328 27.2875 23.0805 27.3078L20.5312 27.6785C20.1402 27.7344 19.9879 28.2117 20.2672 28.491L22.1105 30.2887C22.2223 30.4004 22.273 30.5527 22.2477 30.7102L21.8109 33.2441C21.7449 33.6301 22.1512 33.9297 22.5016 33.7469L24.7766 32.5484C24.9137 32.4773 25.0812 32.4773 25.2184 32.5484L27.4934 33.7469C27.8438 33.9297 28.25 33.6352 28.184 33.2441L27.7473 30.7102C27.7219 30.5578 27.7727 30.4004 27.8844 30.2887L29.7277 28.491C30.0121 28.2168 29.8547 27.7395 29.4637 27.6785L26.9195 27.3078C26.7672 27.2875 26.6301 27.1859 26.5641 27.0488L25.4266 24.7434Z" fill="#AD1F24"/>
</g>
<defs>
<clipPath id="clip0_725_12828">
<rect width="26" height="26" fill="white" transform="translate(12 12.5)"/>
</clipPath>
</defs>
</svg>
