<svg width="191" height="55" viewBox="0 0 191 55" fill="none" xmlns="http://www.w3.org/2000/svg">
<rect y="5.48438" width="189.214" height="48.5482" rx="9.95861" transform="rotate(-1.4645 0 5.48438)" fill="white"/>
<rect x="10.2891" y="18.2959" width="22.4069" height="22.4069" rx="11.2034" transform="rotate(-1.4645 10.2891 18.2959)" fill="#AD1F24"/>
<path d="M18.5207 29.7593L20.7541 31.8814L24.9902 27.1035" stroke="white" stroke-width="1.24483" stroke-linecap="round" stroke-linejoin="round"/>
<path d="M42.8659 25.9248L42.7293 20.5807L40.7694 20.6308L40.745 19.6769L45.6579 19.5513L45.6823 20.5052L43.7921 20.5535L43.9287 25.8977L42.8659 25.9248ZM46.4027 25.8344L46.2875 21.3309L47.3023 21.3049L47.3273 22.2806C47.3942 22.0551 47.4924 21.8623 47.6219 21.7021C47.7543 21.5389 47.9109 21.4129 48.0917 21.324C48.2725 21.2351 48.4703 21.1879 48.6852 21.1824C48.7374 21.1811 48.7883 21.1827 48.8378 21.1872C48.8873 21.1918 48.9239 21.201 48.9475 21.2149L48.9734 22.2298C48.9411 22.2161 48.8988 22.207 48.8463 22.2025C48.7968 22.1979 48.7532 22.1962 48.7155 22.1971C48.4972 22.1853 48.3044 22.1989 48.1368 22.2381C47.9722 22.2771 47.8329 22.3403 47.7189 22.4274C47.6078 22.5116 47.5248 22.6184 47.47 22.7476C47.4151 22.8739 47.3898 23.0213 47.3941 23.1897L47.461 25.8074L46.4027 25.8344ZM51.0844 25.8019C50.7969 25.8093 50.5371 25.7636 50.3051 25.6649C50.0758 25.5633 49.8934 25.4154 49.7577 25.2213C49.6248 25.0242 49.5547 24.7834 49.5474 24.4988C49.5347 24.0023 49.7037 23.6232 50.0544 23.3614C50.408 23.0996 50.9767 22.9529 51.7603 22.9212L52.435 22.8865L52.4272 22.5816C52.4211 22.3435 52.3452 22.1595 52.1995 22.0296C52.0567 21.8967 51.8372 21.8355 51.5411 21.846C51.3205 21.8545 51.1215 21.9119 50.944 22.0181C50.7665 22.1214 50.6518 22.2914 50.5997 22.5281L49.6981 22.5512C49.7077 22.2429 49.7897 21.9837 49.9441 21.7735C50.1013 21.5602 50.3195 21.3992 50.5986 21.2904C50.8775 21.1787 51.2014 21.1181 51.5702 21.1087C51.9999 21.0977 52.3513 21.1453 52.6242 21.2517C52.8971 21.358 53.1002 21.517 53.2335 21.7286C53.3667 21.9373 53.4371 22.1926 53.4448 22.4946L53.5256 25.6523L52.6327 25.6752L52.5249 24.8673C52.3738 25.2111 52.1752 25.4515 51.9288 25.5886C51.6852 25.7226 51.4038 25.7937 51.0844 25.8019ZM51.4101 25.0745C51.5407 25.0711 51.6694 25.0446 51.7959 24.9949C51.9224 24.9422 52.0354 24.874 52.135 24.7901C52.2374 24.7032 52.3178 24.6082 52.3761 24.505C52.4374 24.4017 52.4681 24.2949 52.4682 24.1845L52.45 23.4745L51.8971 23.4974C51.6242 23.5072 51.3854 23.5424 51.1807 23.6029C50.9788 23.6632 50.8229 23.7558 50.7127 23.8807C50.6025 24.0026 50.55 24.1638 50.5551 24.3641C50.561 24.5935 50.6454 24.7715 50.8085 24.8981C50.9714 25.0217 51.172 25.0805 51.4101 25.0745ZM54.6542 25.6235L54.5391 21.1199L55.5757 21.0934L55.5922 21.738C55.6589 21.6201 55.7504 21.5059 55.8667 21.3954C55.9859 21.2849 56.1332 21.1939 56.3086 21.1226C56.4841 21.0513 56.6908 21.0126 56.9289 21.0065C57.2077 20.9994 57.4675 21.048 57.7084 21.1522C57.9522 21.2564 58.1497 21.4242 58.3009 21.6557C58.455 21.8871 58.5368 22.1886 58.5463 22.5603L58.6221 25.522L57.5593 25.5492L57.4868 22.7138C57.4793 22.4176 57.3924 22.2005 57.2261 22.0623C57.0598 21.9213 56.8532 21.854 56.6064 21.8603C56.438 21.8646 56.2791 21.8977 56.1296 21.9596C55.98 22.0187 55.8588 22.1075 55.7659 22.2261C55.6759 22.3417 55.6331 22.4852 55.6374 22.6565L55.7126 25.5964L54.6542 25.6235ZM61.4428 25.5371C61.1292 25.5451 60.8303 25.5033 60.5461 25.4118C60.2647 25.3173 60.0255 25.1651 59.8284 24.9551C59.6341 24.7451 59.508 24.4708 59.45 24.1324L60.382 24.1085C60.4269 24.273 60.5015 24.4062 60.6058 24.5081C60.713 24.61 60.8369 24.6838 60.9776 24.7296C61.121 24.7724 61.2683 24.7919 61.4192 24.7881C61.6893 24.7811 61.9059 24.7291 62.069 24.632C62.2321 24.5348 62.3112 24.389 62.3062 24.1944C62.3026 24.0522 62.2533 23.9401 62.1582 23.8583C62.066 23.7764 61.9163 23.7163 61.709 23.678L60.8503 23.5038C60.4649 23.4294 60.155 23.2979 59.9206 23.1092C59.6863 22.9205 59.5631 22.6491 59.5512 22.2949C59.5414 22.0279 59.6021 21.788 59.7333 21.5755C59.8644 21.3629 60.0634 21.1937 60.3304 21.0677C60.5974 20.9389 60.9283 20.8694 61.3232 20.8593C61.8487 20.8459 62.2728 20.9527 62.5953 21.1798C62.9206 21.4039 63.0932 21.7322 63.1129 22.1646L62.2114 22.1877C62.1744 21.994 62.0791 21.8453 61.9254 21.7417C61.7716 21.6352 61.5742 21.5851 61.3332 21.5913C61.0834 21.5976 60.88 21.6508 60.7227 21.7507C60.5655 21.8506 60.4894 21.9993 60.4944 22.1967C60.4979 22.3332 60.5602 22.4391 60.6812 22.5144C60.8052 22.5897 60.9913 22.6518 61.2395 22.7007L62.0546 22.8759C62.2884 22.9281 62.4806 23.0016 62.6312 23.0966C62.7818 23.1915 62.8993 23.2974 62.9836 23.4144C63.0708 23.5284 63.132 23.6474 63.1671 23.7715C63.2051 23.8925 63.2254 24.0053 63.228 24.1099C63.2355 24.4002 63.1663 24.6504 63.0206 24.8604C62.8777 25.0675 62.6712 25.2297 62.4011 25.347C62.1339 25.4642 61.8144 25.5276 61.4428 25.5371ZM65.5544 25.432C65.2669 25.4393 65.0072 25.3937 64.7751 25.295C64.5459 25.1933 64.3634 25.0455 64.2277 24.8514C64.0948 24.6543 64.0247 24.4135 64.0175 24.1289C64.0048 23.6324 64.1738 23.2532 64.5244 22.9915C64.878 22.7297 65.4467 22.5829 66.2304 22.5513L66.905 22.5166L66.8972 22.2117C66.8911 21.9736 66.8152 21.7896 66.6696 21.6597C66.5267 21.5268 66.3072 21.4655 66.0111 21.476C65.7905 21.4846 65.5915 21.5419 65.4141 21.6482C65.2366 21.7515 65.1218 21.9215 65.0697 22.1582L64.1681 22.1812C64.1777 21.873 64.2597 21.6138 64.4141 21.4035C64.5714 21.1903 64.7895 21.0293 65.0686 20.9205C65.3476 20.8087 65.6714 20.7481 66.0402 20.7387C66.4699 20.7277 66.8213 20.7754 67.0942 20.8817C67.3671 20.9881 67.5702 21.1471 67.7035 21.3587C67.8367 21.5674 67.9071 21.8227 67.9148 22.1247L67.9956 25.2824L67.1027 25.3052L66.9949 24.4973C66.8439 24.8411 66.6452 25.0816 66.3988 25.2186C66.1553 25.3527 65.8738 25.4238 65.5544 25.432ZM65.8801 24.7045C66.0108 24.7012 66.1394 24.6746 66.2659 24.6249C66.3924 24.5723 66.5055 24.504 66.605 24.4201C66.7074 24.3332 66.7878 24.2382 66.8462 24.135C66.9074 24.0318 66.9381 23.9249 66.9382 23.8145L66.9201 23.1046L66.3671 23.1274C66.0943 23.1373 65.8555 23.1725 65.6507 23.2329C65.4489 23.2933 65.2929 23.3859 65.1828 23.5107C65.0726 23.6327 65.02 23.7938 65.0251 23.9942C65.031 24.2236 65.1155 24.4015 65.2785 24.5281C65.4415 24.6518 65.642 24.7106 65.8801 24.7045ZM71.0168 25.2923C70.6044 25.3029 70.2348 25.2222 69.9079 25.0504C69.5838 24.8757 69.3259 24.6179 69.1342 24.277C68.9423 23.9333 68.8401 23.516 68.8276 23.0253C68.8156 22.5578 68.8908 22.1462 69.0532 21.7905C69.2183 21.4318 69.4566 21.1497 69.7681 20.9441C70.0824 20.7356 70.4587 20.6258 70.8972 20.6145C71.2485 20.6056 71.5595 20.6673 71.8302 20.7999C72.1009 20.9324 72.3193 21.1201 72.4853 21.3628C72.6542 21.6054 72.7586 21.8832 72.7986 22.1959L71.897 22.219C71.8703 22.0831 71.8162 21.9552 71.7347 21.8352C71.6531 21.7124 71.5445 21.6149 71.409 21.5429C71.2764 21.4678 71.1157 21.4327 70.9269 21.4375C70.5872 21.4462 70.316 21.5781 70.1133 21.8331C69.9106 22.0882 69.8159 22.4741 69.8291 22.991C69.8413 23.4672 69.9497 23.8436 70.1544 24.1202C70.3619 24.3967 70.6515 24.5302 71.0232 24.5207C71.209 24.516 71.3677 24.4712 71.4992 24.3865C71.6306 24.2989 71.7325 24.1932 71.8049 24.0693C71.8801 23.9424 71.9262 23.8163 71.9434 23.6909L72.8232 23.6684C72.8048 23.974 72.7174 24.2479 72.5609 24.4901C72.4044 24.7324 72.1943 24.9252 71.9306 25.0685C71.6669 25.2089 71.3623 25.2835 71.0168 25.2923ZM75.5178 25.1249C75.1607 25.1341 74.8822 25.0947 74.6824 25.0068C74.4854 24.916 74.3469 24.7844 74.2669 24.6121C74.187 24.4398 74.1439 24.2332 74.1378 23.9922L74.0707 21.3702L73.339 21.3889L73.3199 20.6398L74.0821 20.6203L74.3136 19.2764L75.0758 19.2569L75.1099 20.5896L76.116 20.5639L76.1352 21.3174L75.1291 21.3431L75.1995 23.9258C75.2029 24.0594 75.22 24.1577 75.2506 24.2209C75.2841 24.281 75.3345 24.3204 75.4018 24.3391C75.472 24.3547 75.5637 24.3611 75.6769 24.3582L76.2344 24.3439L76.2516 25.0147C76.1912 25.0394 76.1017 25.0621 75.9831 25.0825C75.8674 25.1058 75.7124 25.12 75.5178 25.1249ZM77.2486 25.0458L77.1335 20.5423L78.1483 20.5163L78.2635 25.0199L77.2486 25.0458ZM77.0959 19.7544L77.0703 18.7526L78.12 18.7258L78.1456 19.7275L77.0959 19.7544ZM81.3695 25.0276C80.9398 25.0386 80.5629 24.9567 80.2388 24.782C79.9146 24.6043 79.6596 24.345 79.4736 24.004C79.2906 23.6629 79.1928 23.2499 79.1804 22.765C79.1684 22.2946 79.2435 21.8801 79.4058 21.5215C79.568 21.1628 79.8049 20.8807 80.1164 20.6752C80.4307 20.4696 80.81 20.3611 81.2543 20.3498C81.684 20.3388 82.0595 20.4236 82.3809 20.6042C82.7022 20.7849 82.953 21.0487 83.1333 21.3957C83.3165 21.7425 83.4144 22.1628 83.427 22.6564C83.4387 23.1123 83.3662 23.5166 83.2096 23.8692C83.0558 24.2189 82.8232 24.4965 82.5118 24.7021C82.2032 24.9075 81.8225 25.0161 81.3695 25.0276ZM81.3533 24.2218C81.5972 24.2155 81.7958 24.1436 81.9492 24.006C82.1055 23.8684 82.2199 23.6824 82.2923 23.4481C82.3648 23.2138 82.3972 22.9486 82.3896 22.6524C82.3826 22.3766 82.3413 22.1234 82.2656 21.8929C82.19 21.6624 82.0706 21.4795 81.9073 21.3442C81.7469 21.2059 81.536 21.1401 81.2746 21.1468C81.0278 21.1531 80.8248 21.2237 80.6655 21.3585C80.5091 21.4903 80.3947 21.6734 80.3222 21.9077C80.2497 22.1391 80.2173 22.4058 80.225 22.7078C80.232 22.9807 80.2733 23.2339 80.349 23.4673C80.4246 23.6978 80.5441 23.8836 80.7076 24.0247C80.8709 24.1629 81.0861 24.2286 81.3533 24.2218ZM84.4535 24.8616L84.3383 20.3581L85.3749 20.3316L85.3914 20.9762C85.4581 20.8583 85.5496 20.744 85.6659 20.6336C85.7851 20.523 85.9325 20.4321 86.1079 20.3608C86.2833 20.2895 86.49 20.2508 86.7281 20.2447C87.0069 20.2375 87.2667 20.2861 87.5077 20.3904C87.7515 20.4945 87.949 20.6624 88.1002 20.8939C88.2543 21.1253 88.3361 21.4268 88.3456 21.7985L88.4213 24.7602L87.3586 24.7874L87.2861 21.9519C87.2785 21.6558 87.1916 21.4386 87.0254 21.3005C86.859 21.1595 86.6525 21.0921 86.4057 21.0984C86.2373 21.1027 86.0783 21.1359 85.9288 21.1978C85.7792 21.2568 85.658 21.3456 85.5651 21.4642C85.4751 21.5798 85.4323 21.7233 85.4367 21.8946L85.5118 24.8346L84.4535 24.8616ZM94.2062 24.6995C93.6283 24.7142 93.1284 24.5948 92.7065 24.3412C92.2873 24.0846 91.9597 23.7153 91.7237 23.2332C91.4904 22.7481 91.3652 22.1687 91.348 21.4951C91.3308 20.8243 91.4265 20.248 91.635 19.7662C91.8435 19.2844 92.1507 18.9119 92.5566 18.6487C92.9653 18.3826 93.46 18.2421 94.0407 18.2272C94.5024 18.2154 94.9142 18.2993 95.2762 18.4789C95.6381 18.6556 95.932 18.9009 96.1579 19.2147C96.3868 19.5285 96.5265 19.8809 96.5772 20.2718L95.4579 20.3004C95.4084 20.0692 95.3217 19.8637 95.198 19.6838C95.0772 19.5039 94.9196 19.3626 94.7252 19.2601C94.5308 19.1575 94.3001 19.1097 94.0329 19.1165C93.699 19.1251 93.4165 19.2122 93.1854 19.3779C92.9571 19.5406 92.7849 19.7949 92.6688 20.1407C92.5556 20.4865 92.506 20.9323 92.5199 21.4782C92.5411 22.3057 92.693 22.9047 92.9756 23.2752C93.2582 23.6457 93.6506 23.8246 94.153 23.8117C94.4201 23.8049 94.648 23.741 94.8367 23.6199C95.0253 23.496 95.1752 23.3352 95.2863 23.1377C95.4003 22.9372 95.4761 22.7203 95.5137 22.4869L96.6331 22.4583C96.6055 22.7437 96.5399 23.0185 96.4363 23.2826C96.3355 23.5467 96.189 23.7844 95.9969 23.9956C95.8046 24.2039 95.5605 24.3714 95.2644 24.4981C94.9712 24.6218 94.6185 24.6889 94.2062 24.6995ZM99.6165 24.5611C99.1868 24.5721 98.8099 24.4902 98.4858 24.3155C98.1617 24.1378 97.9066 23.8785 97.7206 23.5375C97.5376 23.1964 97.4399 22.7834 97.4275 22.2985C97.4154 21.8281 97.4906 21.4136 97.6528 21.055C97.8151 20.6963 98.0519 20.4142 98.3634 20.2087C98.6777 20.0031 99.057 19.8946 99.5013 19.8833C99.931 19.8723 100.307 19.9571 100.628 20.1377C100.949 20.3184 101.2 20.5822 101.38 20.9292C101.564 21.276 101.661 21.6963 101.674 22.1899C101.686 22.6458 101.613 23.0501 101.457 23.4027C101.303 23.7524 101.07 24.03 100.759 24.2356C100.45 24.441 100.07 24.5496 99.6165 24.5611ZM99.6003 23.7553C99.8442 23.749 100.043 23.6771 100.196 23.5395C100.353 23.4019 100.467 23.2159 100.539 22.9816C100.612 22.7473 100.644 22.4821 100.637 22.1859C100.63 21.9101 100.588 21.6569 100.513 21.4264C100.437 21.1959 100.318 21.013 100.154 20.8777C99.9939 20.7394 99.783 20.6736 99.5217 20.6803C99.2749 20.6866 99.0718 20.7572 98.9126 20.892C98.7561 21.0238 98.6417 21.2069 98.5692 21.4412C98.4967 21.6726 98.4643 21.9393 98.472 22.2413C98.479 22.5142 98.5203 22.7674 98.596 23.0008C98.6717 23.2313 98.7912 23.4171 98.9546 23.5582C99.1179 23.6964 99.3332 23.7621 99.6003 23.7553ZM102.701 24.3951L102.585 19.8916L103.618 19.8652L103.634 20.5098C103.76 20.309 103.932 20.1332 104.152 19.9823C104.375 19.8313 104.661 19.7513 105.009 19.7424C105.169 19.7384 105.331 19.7618 105.495 19.8128C105.662 19.8638 105.816 19.9412 105.958 20.045C106.103 20.1488 106.22 20.2795 106.308 20.4371C106.445 20.2215 106.629 20.0424 106.861 19.8999C107.096 19.7574 107.361 19.6823 107.657 19.6747C107.82 19.6706 107.987 19.6924 108.16 19.7403C108.336 19.7881 108.498 19.8712 108.646 19.9894C108.794 20.1077 108.916 20.2716 109.012 20.4813C109.107 20.688 109.159 20.9497 109.167 21.2662L109.242 24.2279L108.184 24.2549L108.112 21.4195C108.106 21.1959 108.062 21.0213 107.98 20.8955C107.899 20.7698 107.795 20.6823 107.669 20.6333C107.545 20.5812 107.414 20.557 107.275 20.5605C107.15 20.5637 107.02 20.5918 106.884 20.6446C106.752 20.6974 106.64 20.7816 106.547 20.8973C106.457 21.0129 106.414 21.1666 106.419 21.3582L106.494 24.2981L105.436 24.3252L105.359 21.3199C105.355 21.1631 105.311 21.0335 105.227 20.931C105.143 20.8286 105.038 20.7528 104.912 20.7038C104.788 20.6517 104.663 20.6273 104.535 20.6306C104.404 20.6339 104.271 20.6649 104.136 20.7236C104.004 20.7822 103.895 20.8692 103.807 20.9848C103.72 21.1003 103.679 21.2481 103.684 21.4281L103.759 24.3681L102.701 24.3951ZM110.418 25.6012L110.267 19.6952L111.325 19.6681L111.352 20.3778C111.408 20.2776 111.479 20.1785 111.567 20.0803C111.657 19.9822 111.761 19.8938 111.878 19.8152C111.998 19.7366 112.132 19.6737 112.279 19.6263C112.426 19.5761 112.588 19.5487 112.765 19.5442C113.11 19.5353 113.419 19.6102 113.69 19.7689C113.961 19.9247 114.177 20.1705 114.337 20.5064C114.499 20.8422 114.587 21.27 114.6 21.7897C114.614 22.3211 114.547 22.7659 114.399 23.1241C114.251 23.4824 114.039 23.7537 113.762 23.938C113.485 24.1194 113.16 24.2149 112.789 24.2244C112.617 24.2288 112.46 24.2095 112.316 24.1667C112.176 24.1238 112.049 24.0631 111.937 23.9847C111.825 23.9062 111.725 23.8201 111.638 23.7264C111.555 23.6327 111.484 23.5343 111.426 23.4311L111.481 25.574L110.418 25.6012ZM112.533 23.4377C112.853 23.4295 113.114 23.2965 113.316 23.0385C113.519 22.7776 113.613 22.3757 113.599 21.8327C113.587 21.3623 113.479 20.9947 113.275 20.7297C113.073 20.4617 112.799 20.3321 112.454 20.341C112.082 20.3505 111.807 20.5013 111.629 20.7935C111.45 21.0828 111.367 21.4482 111.378 21.8895C111.385 22.1741 111.432 22.4358 111.52 22.6747C111.61 22.9107 111.739 23.0992 111.905 23.2402C112.074 23.3783 112.283 23.4441 112.533 23.4377ZM116.922 24.0969C116.632 24.1043 116.398 24.074 116.222 24.0058C116.046 23.9377 115.913 23.8438 115.823 23.7241C115.733 23.6043 115.672 23.4693 115.642 23.319C115.612 23.1658 115.595 23.0093 115.591 22.8496L115.457 17.5925L116.493 17.566L116.625 22.7011C116.63 22.8957 116.673 23.0457 116.754 23.1511C116.838 23.2565 116.97 23.3155 117.151 23.3284L117.377 23.3313L117.394 23.9977C117.317 24.0229 117.237 24.0453 117.156 24.0648C117.076 24.0843 116.997 24.095 116.922 24.0969ZM120.141 24.0364C119.709 24.0475 119.325 23.9658 118.989 23.7913C118.656 23.6138 118.392 23.3562 118.198 23.0183C118.006 22.6804 117.904 22.2747 117.892 21.8014C117.88 21.3398 117.953 20.9282 118.109 20.5668C118.268 20.2025 118.503 19.9132 118.815 19.6989C119.129 19.4846 119.511 19.3717 119.961 19.3602C120.405 19.3488 120.781 19.4337 121.088 19.6147C121.394 19.7957 121.63 20.0541 121.796 20.3898C121.961 20.7226 122.05 21.1155 122.061 21.5684L122.07 21.8908L118.956 21.9704C118.959 22.226 119.006 22.4514 119.095 22.6467C119.184 22.842 119.313 22.9942 119.481 23.1032C119.65 23.2093 119.856 23.2592 120.1 23.253C120.349 23.2466 120.564 23.1859 120.744 23.0709C120.927 22.9529 121.046 22.7784 121.101 22.5475L122.068 22.5227C122.024 22.8377 121.906 23.1065 121.714 23.3294C121.525 23.5521 121.291 23.7237 121.013 23.8442C120.737 23.9645 120.446 24.0286 120.141 24.0364ZM118.934 21.3128L121.051 21.2587C121.046 21.0409 121.001 20.8459 120.918 20.6737C120.838 20.4985 120.72 20.3621 120.564 20.2644C120.407 20.1638 120.211 20.1165 119.976 20.1225C119.744 20.1284 119.549 20.1901 119.392 20.3074C119.236 20.4247 119.119 20.5744 119.042 20.7565C118.965 20.9357 118.929 21.1212 118.934 21.3128ZM124.772 23.8657C124.415 23.8748 124.136 23.8355 123.937 23.7476C123.74 23.6568 123.601 23.5252 123.521 23.3529C123.441 23.1806 123.398 22.974 123.392 22.733L123.325 20.111L122.593 20.1297L122.574 19.3805L123.336 19.3611L123.568 18.0171L124.33 17.9976L124.364 19.3304L125.37 19.3047L125.389 20.0582L124.383 20.0839L124.454 22.6666C124.457 22.8002 124.474 22.8985 124.505 22.9617C124.538 23.0218 124.589 23.0612 124.656 23.0798C124.726 23.0955 124.818 23.1018 124.931 23.0989L125.489 23.0847L125.506 23.7554C125.445 23.7802 125.356 23.8028 125.237 23.8233C125.122 23.8466 124.967 23.8607 124.772 23.8657ZM128.351 23.8265C127.918 23.8376 127.534 23.7559 127.198 23.5814C126.865 23.404 126.601 23.1463 126.407 22.8084C126.215 22.4705 126.113 22.0649 126.101 21.5916C126.089 21.1299 126.162 20.7184 126.318 20.357C126.477 19.9926 126.712 19.7033 127.024 19.4891C127.338 19.2747 127.72 19.1618 128.17 19.1503C128.614 19.139 128.99 19.2238 129.297 19.4048C129.603 19.5858 129.839 19.8442 130.005 20.1799C130.17 20.5127 130.259 20.9056 130.27 21.3586L130.279 21.6809L127.165 21.7605C127.168 22.0161 127.215 22.2415 127.304 22.4368C127.393 22.6321 127.522 22.7843 127.69 22.8933C127.859 22.9994 128.065 23.0493 128.309 23.0431C128.558 23.0367 128.773 22.976 128.953 22.861C129.136 22.743 129.255 22.5685 129.311 22.3376L130.277 22.3129C130.233 22.6278 130.115 22.8967 129.923 23.1195C129.734 23.3422 129.5 23.5138 129.222 23.6343C128.946 23.7547 128.655 23.8187 128.351 23.8265ZM127.143 21.1029L129.26 21.0488C129.255 20.831 129.21 20.6361 129.128 20.4638C129.047 20.2886 128.929 20.1522 128.773 20.0545C128.616 19.9539 128.42 19.9066 128.185 19.9126C127.953 19.9186 127.758 19.9802 127.601 20.0975C127.445 20.2149 127.328 20.3646 127.251 20.5467C127.174 20.7259 127.138 20.9113 127.143 21.1029ZM133.018 23.7072C132.422 23.7224 131.95 23.5297 131.599 23.1289C131.249 22.7282 131.064 22.1504 131.045 21.3954C131.033 20.925 131.091 20.5153 131.219 20.1663C131.349 19.8143 131.547 19.5405 131.812 19.3448C132.077 19.1463 132.407 19.042 132.802 19.0319C132.988 19.0271 133.157 19.0461 133.309 19.0887C133.464 19.1283 133.602 19.1829 133.723 19.2524C133.844 19.322 133.946 19.3992 134.03 19.4843C134.116 19.5692 134.184 19.6547 134.232 19.7406L134.165 17.1142L135.232 17.087L135.398 23.5592L134.614 23.5792L134.473 22.6589C134.438 22.7673 134.387 22.8819 134.32 23.0027C134.256 23.1206 134.168 23.2318 134.054 23.3364C133.943 23.4409 133.803 23.5273 133.634 23.5956C133.464 23.6638 133.259 23.7011 133.018 23.7072ZM133.215 22.922C133.596 22.9123 133.87 22.7818 134.038 22.5305C134.209 22.2763 134.287 21.8617 134.272 21.2868C134.261 20.9587 134.213 20.6839 134.129 20.4624C134.048 20.2407 133.927 20.0753 133.767 19.966C133.608 19.8568 133.402 19.8054 133.149 19.8119C132.83 19.82 132.57 19.9444 132.37 20.1848C132.172 20.4252 132.081 20.8111 132.094 21.3425C132.108 21.8709 132.212 22.2692 132.408 22.5373C132.604 22.8025 132.873 22.9308 133.215 22.922Z" fill="black"/>
<path d="M42.4819 37.4279L42.372 33.1309L41.3304 33.1575L41.3189 32.7058C41.6424 32.6975 41.8932 32.6675 42.0712 32.6156C42.2492 32.5637 42.3743 32.4883 42.4464 32.3893C42.5211 32.2903 42.5603 32.1685 42.5641 32.024L43.0569 32.0114L43.1949 37.4097L42.4819 37.4279ZM44.472 34.5453L44.4495 33.668L45.2746 33.6469L45.297 34.5243L44.472 34.5453ZM44.5437 37.3528L44.5215 36.4829L45.3466 36.4618L45.3688 37.3317L44.5437 37.3528ZM48.0862 37.3668C47.7153 37.3738 47.3863 37.3137 47.0991 37.1866C46.8144 37.0594 46.5881 36.8771 46.4202 36.6398C46.2521 36.4001 46.1577 36.1136 46.1367 35.7804L46.8273 35.7627C46.8882 36.0974 47.0317 36.3515 47.2578 36.525C47.4838 36.6986 47.7636 36.7811 48.0971 36.7725C48.361 36.7658 48.5901 36.7188 48.7846 36.6317C48.9791 36.542 49.128 36.4224 49.2312 36.2728C49.3345 36.1233 49.3836 35.9502 49.3786 35.7535C49.373 35.537 49.3086 35.3556 49.1854 35.2093C49.0621 35.0631 48.8962 34.954 48.6876 34.8821C48.479 34.8078 48.2477 34.7726 47.9938 34.7766L47.5082 34.7778L47.4932 34.1917L47.9559 34.1686C48.1922 34.1576 48.4026 34.1074 48.5871 34.018C48.7715 33.9261 48.9155 33.8091 49.0189 33.667C49.1248 33.5224 49.1756 33.3654 49.1712 33.1962C49.1674 33.0468 49.1179 32.9099 49.0225 32.7853C48.9271 32.6582 48.7913 32.5583 48.6151 32.4856C48.4414 32.4129 48.2314 32.3797 47.985 32.386C47.7909 32.3909 47.6064 32.4342 47.4317 32.5159C47.2569 32.5951 47.1143 32.7145 47.0038 32.8743C46.8933 33.034 46.8375 33.2384 46.8364 33.4875L46.1495 33.505C46.1406 33.1566 46.2176 32.8583 46.3806 32.61C46.5436 32.3593 46.764 32.1656 47.0419 32.029C47.3224 31.8923 47.6331 31.8197 47.974 31.8109C48.3474 31.8014 48.6785 31.8477 48.9675 31.9499C49.2565 32.0496 49.4845 32.2007 49.6516 32.4031C49.8186 32.6056 49.906 32.8561 49.9136 33.1548C49.9204 33.4211 49.842 33.6647 49.6782 33.8855C49.5145 34.1039 49.2599 34.2785 48.9146 34.4093C49.1527 34.468 49.3617 34.5573 49.5416 34.6772C49.7215 34.7972 49.8623 34.9467 49.964 35.1259C50.0656 35.3026 50.1194 35.508 50.1254 35.7419C50.1317 35.9883 50.0851 36.2112 49.9856 36.4105C49.8885 36.6072 49.7484 36.7764 49.5653 36.918C49.382 37.0572 49.1644 37.1661 48.9124 37.2448C48.6603 37.321 48.3849 37.3616 48.0862 37.3668ZM52.7604 37.2473C52.1705 37.2624 51.6967 37.0429 51.3389 36.5888C50.9811 36.1322 50.7905 35.4485 50.7672 34.5376C50.7515 33.9228 50.818 33.4056 50.9667 32.9859C51.1153 32.5662 51.3313 32.2481 51.6147 32.0317C51.898 31.8152 52.2351 31.702 52.6258 31.692C53.2107 31.6771 53.6821 31.9004 54.0401 32.3619C54.4005 32.8209 54.5925 33.5096 54.6159 34.428C54.6393 35.3414 54.484 36.0364 54.15 36.5132C53.8159 36.9874 53.3527 37.2321 52.7604 37.2473ZM52.7526 36.6498C53.1384 36.6399 53.4252 36.4632 53.6132 36.1197C53.8036 35.7737 53.889 35.2173 53.8694 34.4508C53.8494 33.6693 53.7342 33.1094 53.5239 32.7711C53.3159 32.4302 53.0203 32.2647 52.637 32.2745C52.2562 32.2842 51.967 32.466 51.7693 32.8197C51.5741 33.1708 51.4864 33.7347 51.5062 34.5112C51.5258 35.2753 51.6419 35.8252 51.8547 36.1609C52.0675 36.4967 52.3668 36.6596 52.7526 36.6498ZM57.5777 37.0419L57.4397 31.6437L59.2653 31.597C59.651 31.5871 59.9961 31.643 60.3006 31.7648C60.6051 31.8865 60.8464 32.0721 61.0246 32.3216C61.2053 32.571 61.3004 32.8811 61.3099 33.2519C61.3191 33.6103 61.246 33.9185 61.0907 34.1765C60.9379 34.4344 60.7201 34.633 60.4373 34.7722C60.1544 34.9115 59.8238 34.9859 59.4455 34.9956L58.236 35.0265L58.287 37.0238L57.5777 37.0419ZM58.2173 34.4442L59.4157 34.4136C59.7866 34.4041 60.0851 34.2931 60.3112 34.0806C60.5374 33.8681 60.646 33.5839 60.6369 33.228C60.6277 32.8696 60.5013 32.6014 60.2577 32.4233C60.014 32.2453 59.7031 32.1611 59.3248 32.1708L58.16 32.2005L58.2173 34.4442ZM62.3318 36.9204L62.1938 31.5221L63.1495 31.4977L64.8911 35.9136L66.4273 31.4139L67.3793 31.3895L67.5173 36.7878L66.8042 36.8061L66.6926 32.4419L65.24 36.8461L64.5941 36.8626L62.9306 32.5792L63.0411 36.9023L62.3318 36.9204Z" fill="#505673"/>
</svg>
