<svg width="97" height="96" viewBox="0 0 97 96" fill="none" xmlns="http://www.w3.org/2000/svg">
<rect x="0.308594" width="96" height="96" rx="48" fill="#EDE9D4"/>
<path d="M48.3095 19.8408L25.2695 30.0808V45.4408C25.2695 59.6488 35.0999 72.9352 48.3095 76.1608C61.5191 72.9352 71.3495 59.6488 71.3495 45.4408V30.0808L48.3095 19.8408ZM48.3095 35.2008C51.8935 35.2008 55.4775 38.0168 55.4775 41.6008V45.4408C57.0135 45.4408 58.5495 46.9768 58.5495 48.7688V57.7288C58.5495 59.2648 57.0135 60.8008 55.2215 60.8008H41.1415C39.6055 60.8008 38.0695 59.2648 38.0695 57.4728V48.5128C38.0695 46.9768 39.6055 45.4408 41.1415 45.4408V41.6008C41.1415 38.0168 44.7255 35.2008 48.3095 35.2008ZM48.3095 38.2728C46.2615 38.2728 44.4695 39.5528 44.4695 41.6008V45.4408H52.1495V41.6008C52.1495 39.5528 50.3575 38.2728 48.3095 38.2728Z" fill="#A6812C"/>
</svg>
