<svg width="76" height="76" viewBox="0 0 76 76" fill="none" xmlns="http://www.w3.org/2000/svg">
<rect x="0.757812" y="0.423828" width="75.1523" height="75.1523" rx="37.5762" fill="#F4E5E6"/>
<path fill-rule="evenodd" clip-rule="evenodd" d="M26.834 50.0491C29.8575 54.2082 33.6906 56.8723 38.3333 58.0413C42.9774 56.8736 46.8105 54.2102 49.8327 50.0511C52.8548 45.892 54.3659 41.274 54.3659 36.197V23.9722L38.3333 17.96L22.3008 23.9722V36.197C22.2994 41.2726 23.8105 45.89 26.834 50.0491ZM39.3935 25.4146C39.1117 25.1328 38.7293 24.9744 38.3307 24.9744C37.9321 24.9744 37.5498 25.1328 37.2679 25.4146C36.986 25.6965 36.8277 26.0788 36.8277 26.4775V27.4194C35.8314 27.6464 34.9418 28.2052 34.3046 29.004C33.6674 29.8029 33.3204 30.7945 33.3205 31.8163V32.3474C33.3204 33.2654 33.6005 34.1615 34.1234 34.9161C34.6462 35.6706 35.3869 36.2476 36.2465 36.5699L39.3588 37.7383C39.6453 37.8456 39.8923 38.0378 40.0667 38.2892C40.2411 38.5406 40.3346 38.8392 40.3348 39.1452V39.6763C40.3348 40.0749 40.1764 40.4572 39.8946 40.7391C39.6127 41.0209 39.2304 41.1793 38.8317 41.1793H37.4549C36.8317 41.1793 36.3266 40.6743 36.3266 40.051C36.3266 39.6524 36.1683 39.2701 35.8864 38.9882C35.6045 38.7063 35.2222 38.548 34.8236 38.548C34.425 38.548 34.0427 38.7063 33.7608 38.9882C33.4789 39.2701 33.3205 39.6524 33.3205 40.051C33.3194 41.0391 33.6726 41.9949 34.3162 42.7447C34.9597 43.4945 35.8508 43.9886 36.8277 44.1373V45.0151C36.8277 45.4137 36.986 45.796 37.2679 46.0779C37.5498 46.3598 37.9321 46.5181 38.3307 46.5181C38.7293 46.5181 39.1117 46.3598 39.3935 46.0779C39.6754 45.796 39.8338 45.4137 39.8338 45.0151V44.0732C40.8301 43.8461 41.7197 43.2874 42.3569 42.4885C42.994 41.6897 43.341 40.6981 43.3409 39.6763V39.1452C43.341 38.2272 43.0609 37.331 42.538 36.5765C42.0152 35.8219 41.2745 35.2449 40.4149 34.9226L37.3026 33.7562C37.0158 33.6488 36.7686 33.4563 36.5942 33.2045C36.4197 32.9528 36.3264 32.6537 36.3266 32.3474V31.8163C36.3266 31.4177 36.485 31.0354 36.7669 30.7535C37.0488 30.4716 37.4311 30.3132 37.8297 30.3132H39.2065C39.5057 30.3132 39.7927 30.4321 40.0043 30.6437C40.2159 30.8553 40.3348 31.1423 40.3348 31.4415C40.3348 31.8402 40.4931 32.2225 40.775 32.5044C41.0569 32.7862 41.4392 32.9446 41.8378 32.9446C42.2365 32.9446 42.6188 32.7862 42.9007 32.5044C43.1825 32.2225 43.3409 31.8402 43.3409 31.4415C43.3409 29.3713 41.8178 27.6558 39.8338 27.3552V26.4775C39.8338 26.0788 39.6754 25.6965 39.3935 25.4146Z" fill="#AD1F24"/>
</svg>
