<svg width="97" height="97" viewBox="0 0 97 97" fill="none" xmlns="http://www.w3.org/2000/svg">
<rect x="0.308594" y="0.5" width="96" height="96" rx="48" fill="#EDE9D4"/>
<path d="M40.8454 56.1508H32.8277C31.7932 56.1508 31.0276 55.6879 30.531 54.762C30.0344 53.836 30.0888 52.9412 30.694 52.0773L50.027 24.274C50.458 23.6705 51.0184 23.2507 51.7081 23.0145C52.3978 22.7782 53.109 22.7886 53.8418 23.0455C54.5746 23.3024 55.1135 23.755 55.4583 24.4033C55.8032 25.0516 55.9325 25.7413 55.8463 26.4724L53.7772 43.2191H63.7993C64.9201 43.2191 65.7072 43.7148 66.1606 44.7062C66.6141 45.6976 66.4736 46.6244 65.7391 47.4865L44.4663 72.9621C43.9921 73.5225 43.4102 73.8889 42.7205 74.0613C42.0308 74.2338 41.3627 74.1691 40.7161 73.8674C40.0695 73.5656 39.5634 73.1027 39.1979 72.4785C38.8324 71.8543 38.6918 71.175 38.7763 70.4404L40.8454 56.1508Z" fill="#A6812C"/>
</svg>
