<svg width="76" height="76" viewBox="0 0 76 76" fill="none" xmlns="http://www.w3.org/2000/svg">
<rect x="0.421875" y="0.423828" width="75.1523" height="75.1523" rx="37.5762" fill="#F4E5E6"/>
<path fill-rule="evenodd" clip-rule="evenodd" d="M28.9844 25.9753H43.2694C45.0615 25.978 46.7793 26.6918 48.0456 27.9599C49.3119 29.2281 50.0231 30.947 50.0231 32.7391V51.5272C51.6176 51.5272 53.1469 50.8938 54.2744 49.7663C55.4019 48.6388 56.0353 47.1096 56.0353 45.515V26.1918C56.0353 23.1757 53.7807 20.5583 50.6965 20.2998C50.2471 20.2633 49.7975 20.2299 49.3477 20.1996C48.8404 19.2222 48.0744 18.4029 47.1333 17.8311C46.1922 17.2593 45.1121 16.9569 44.0109 16.957H41.0048C39.9036 16.9569 38.8235 17.2593 37.8824 17.8311C36.9412 18.4029 36.1752 19.2222 35.6679 20.1996C35.2164 20.2303 34.7668 20.2637 34.3192 20.2998C31.3091 20.5543 29.0886 23.0534 28.9844 25.9753ZM41.0048 19.9631C40.2075 19.9631 39.4429 20.2798 38.8791 20.8436C38.3154 21.4074 37.9987 22.172 37.9987 22.9692H47.017C47.017 22.172 46.7003 21.4074 46.1365 20.8436C45.5728 20.2798 44.8082 19.9631 44.0109 19.9631H41.0048Z" fill="#AD1F24"/>
<path fill-rule="evenodd" clip-rule="evenodd" d="M19.957 32.7391C19.957 30.6629 21.6404 28.9814 23.7147 28.9814H43.2543C45.3305 28.9814 47.012 30.6649 47.012 32.7391V55.2849C47.012 57.3591 45.3285 59.0425 43.2543 59.0425H23.7147C22.7181 59.0425 21.7623 58.6466 21.0576 57.9419C20.3529 57.2372 19.957 56.2814 19.957 55.2849V32.7391ZM39.168 41.9458C39.4171 41.6343 39.5321 41.2367 39.488 40.8404C39.4438 40.444 39.244 40.0815 38.9326 39.8325C38.6211 39.5835 38.2235 39.4684 37.8271 39.5125C37.4308 39.5567 37.0683 39.7565 36.8193 40.068L31.8572 46.2706L30.0375 44.4529C29.7526 44.1874 29.3757 44.0428 28.9863 44.0497C28.5969 44.0566 28.2254 44.2143 27.95 44.4897C27.6746 44.7651 27.5169 45.1366 27.51 45.526C27.5031 45.9154 27.6477 46.2922 27.9132 46.5772L30.9193 49.5833C31.0688 49.7327 31.2481 49.849 31.4456 49.9244C31.6431 49.9998 31.8543 50.0328 32.0653 50.021C32.2764 50.0093 32.4826 49.9532 32.6705 49.8564C32.8584 49.7595 33.0238 49.6241 33.1558 49.459L39.168 41.9458Z" fill="#AD1F24"/>
</svg>
