<svg width="210" height="194" viewBox="0 0 210 194" fill="none" xmlns="http://www.w3.org/2000/svg">
<g filter="url(#filter0_dddd_725_11727)">
<rect x="26" y="5.0166" width="158.764" height="141.242" rx="28.5726" fill="white"/>
<path d="M87.6826 41.5889V35.2839H88.5112L92.4066 40.5888V35.2839H93.1209V41.5889H92.2923L88.3969 36.2648V41.5889H87.6826ZM96.6296 41.6651C96.147 41.6651 95.7248 41.5571 95.3629 41.3412C95.0009 41.119 94.7184 40.8206 94.5152 40.446C94.3184 40.0713 94.2199 39.6586 94.2199 39.2078C94.2199 38.7507 94.3152 38.3379 94.5057 37.9697C94.6962 37.5951 94.9692 37.2998 95.3248 37.0839C95.6803 36.8617 96.0994 36.7506 96.5819 36.7506C97.0709 36.7506 97.4899 36.8617 97.8391 37.0839C98.1947 37.2998 98.4677 37.5951 98.6582 37.9697C98.8487 38.3379 98.9439 38.7507 98.9439 39.2078V39.4935H94.9533C94.9914 39.7729 95.0803 40.0301 95.22 40.265C95.366 40.4936 95.5597 40.6777 95.801 40.8174C96.0422 40.9507 96.3216 41.0174 96.6391 41.0174C96.9756 41.0174 97.2582 40.9444 97.4867 40.7984C97.7153 40.646 97.8931 40.4523 98.0201 40.2174H98.8011C98.636 40.6428 98.3725 40.992 98.0106 41.265C97.655 41.5317 97.1947 41.6651 96.6296 41.6651ZM94.9628 38.8269H98.2011C98.1376 38.4205 97.9661 38.0808 97.6868 37.8078C97.4074 37.5347 97.0391 37.3982 96.5819 37.3982C96.1248 37.3982 95.7565 37.5347 95.4771 37.8078C95.2041 38.0808 95.0327 38.4205 94.9628 38.8269ZM100.741 41.5889L99.2453 36.8268H100.007L101.15 40.7031L102.36 36.8268H103.141L104.35 40.7031L105.493 36.8268H106.255L104.76 41.5889H103.941L102.75 37.7887L101.56 41.5889H100.741ZM111.75 41.6651C111.122 41.6651 110.579 41.5222 110.122 41.2365C109.665 40.9444 109.312 40.5539 109.065 40.065C108.823 39.5761 108.703 39.0332 108.703 38.4364C108.703 37.8395 108.823 37.2966 109.065 36.8077C109.312 36.3188 109.665 35.9315 110.122 35.6458C110.579 35.3537 111.122 35.2077 111.75 35.2077C112.227 35.2077 112.655 35.2934 113.036 35.4648C113.417 35.6299 113.741 35.8585 114.008 36.1506C114.274 36.4426 114.474 36.7823 114.608 37.1696H113.855C113.697 36.7823 113.446 36.4744 113.103 36.2458C112.76 36.0172 112.328 35.9029 111.808 35.9029C111.3 35.9029 110.865 36.0172 110.503 36.2458C110.147 36.468 109.877 36.7696 109.693 37.1506C109.509 37.5316 109.417 37.9602 109.417 38.4364C109.417 38.9062 109.509 39.3348 109.693 39.7221C109.877 40.1031 110.147 40.4079 110.503 40.6364C110.865 40.8587 111.3 40.9698 111.808 40.9698C112.328 40.9698 112.76 40.8555 113.103 40.6269C113.446 40.3983 113.697 40.0904 113.855 39.7031H114.608C114.474 40.084 114.274 40.4237 114.008 40.7222C113.741 41.0142 113.417 41.246 113.036 41.4174C112.655 41.5825 112.227 41.6651 111.75 41.6651ZM117.536 41.6651C117.072 41.6651 116.666 41.5571 116.317 41.3412C115.974 41.119 115.707 40.8206 115.517 40.446C115.326 40.0713 115.231 39.6586 115.231 39.2078C115.231 38.7507 115.326 38.3379 115.517 37.9697C115.707 37.5951 115.974 37.2998 116.317 37.0839C116.666 36.8617 117.072 36.7506 117.536 36.7506C117.929 36.7506 118.266 36.8268 118.545 36.9792C118.831 37.1315 119.063 37.3379 119.241 37.5982V36.8268H119.955V41.5889H119.241V40.8269C119.063 41.0809 118.831 41.2841 118.545 41.4365C118.266 41.5889 117.929 41.6651 117.536 41.6651ZM117.631 41.0174C117.986 41.0174 118.285 40.9349 118.526 40.7698C118.774 40.6047 118.961 40.3856 119.088 40.1126C119.215 39.8332 119.279 39.5316 119.279 39.2078C119.279 38.8776 119.215 38.576 119.088 38.303C118.961 38.03 118.774 37.8109 118.526 37.6459C118.285 37.4808 117.986 37.3982 117.631 37.3982C117.282 37.3982 116.98 37.4808 116.726 37.6459C116.472 37.8109 116.278 38.03 116.145 38.303C116.012 38.576 115.945 38.8776 115.945 39.2078C115.945 39.5316 116.012 39.8332 116.145 40.1126C116.278 40.3856 116.472 40.6047 116.726 40.7698C116.98 40.9349 117.282 41.0174 117.631 41.0174ZM121.19 41.5889V36.8268H121.905V37.9982C121.93 37.9157 121.978 37.8078 122.048 37.6744C122.124 37.5347 122.232 37.3951 122.371 37.2554C122.511 37.1157 122.686 36.9982 122.895 36.903C123.111 36.8014 123.365 36.7506 123.657 36.7506H123.705V37.4649H123.619C123.263 37.4649 122.956 37.5633 122.695 37.7601C122.441 37.9506 122.244 38.2014 122.105 38.5126C121.971 38.8173 121.905 39.1443 121.905 39.4935V41.5889H121.19Z" fill="black"/>
<path d="M55.5709 68.3506V63.4106H54.4109V61.9306H55.5709V60.4906H54.4109V59.0106H55.5709V54.0706H58.7109L60.2709 59.0106H62.0909V54.0706H64.3109V59.0106H65.4509V60.4906H64.3109V61.9306H65.4509V63.4106H64.3109V68.3506H61.1509L59.5509 63.4106H57.7909V68.3506H55.5709ZM57.7909 61.9306H59.1109L58.6709 60.4906H57.7509L57.7909 61.9306ZM62.1509 65.2306H62.2509L62.1709 63.4106H61.6309L62.1509 65.2306ZM57.7109 59.0106H58.2709L57.6909 57.0906H57.6109L57.7109 59.0106ZM61.2109 61.9306H62.1309L62.0909 60.4906H60.7509L61.2109 61.9306ZM75.2163 68.3506H72.1363V58.9906L68.6563 63.4706H76.7563V65.7906H66.3563V63.0906L72.4563 55.4906H75.2163V68.3506ZM78.1397 68.3506V65.1306H81.3397V66.8706C81.3397 67.5639 81.293 68.1839 81.1997 68.7306C81.1064 69.2906 80.9597 69.8173 80.7597 70.3106C80.5597 70.8039 80.2997 71.3173 79.9797 71.8506H78.3997C78.5864 71.4506 78.753 71.0573 78.8997 70.6706C79.0464 70.2973 79.1597 69.9173 79.2397 69.5306C79.333 69.1439 79.3797 68.7506 79.3797 68.3506H78.1397ZM90.0169 68.3506H86.7969V58.9706C86.6902 58.9706 86.5769 58.9706 86.4569 58.9706C86.3369 58.9706 86.2035 58.9706 86.0569 58.9706H84.4369V56.7506H85.3569C86.1302 56.7506 86.6502 56.6573 86.9169 56.4706C87.1969 56.2839 87.3369 56.0106 87.3369 55.6506V55.4906H90.0169V68.3506ZM84.4369 68.3706V66.0306H92.3969V68.3706H84.4369ZM99.5803 68.6706C97.9403 68.6706 96.6603 68.0773 95.7403 66.8906C94.8203 65.7039 94.3603 64.0506 94.3603 61.9306C94.3603 59.7839 94.8203 58.1239 95.7403 56.9506C96.6603 55.7639 97.9403 55.1706 99.5803 55.1706C101.22 55.1706 102.5 55.7639 103.42 56.9506C104.34 58.1373 104.8 59.7973 104.8 61.9306C104.8 64.0639 104.34 65.7239 103.42 66.9106C102.5 68.0839 101.22 68.6706 99.5803 68.6706ZM99.5803 66.1306C100.26 66.1306 100.774 65.7706 101.12 65.0506C101.48 64.3306 101.66 63.2906 101.66 61.9306C101.66 60.5706 101.48 59.5306 101.12 58.8106C100.774 58.0773 100.26 57.7106 99.5803 57.7106C98.9003 57.7106 98.3803 58.0706 98.0203 58.7906C97.6603 59.5106 97.4803 60.5573 97.4803 61.9306C97.4803 63.2773 97.6603 64.3173 98.0203 65.0506C98.3803 65.7706 98.9003 66.1306 99.5803 66.1306ZM111.104 68.6706C109.464 68.6706 108.184 68.0773 107.264 66.8906C106.344 65.7039 105.884 64.0506 105.884 61.9306C105.884 59.7839 106.344 58.1239 107.264 56.9506C108.184 55.7639 109.464 55.1706 111.104 55.1706C112.744 55.1706 114.024 55.7639 114.944 56.9506C115.864 58.1373 116.324 59.7973 116.324 61.9306C116.324 64.0639 115.864 65.7239 114.944 66.9106C114.024 68.0839 112.744 68.6706 111.104 68.6706ZM111.104 66.1306C111.784 66.1306 112.297 65.7706 112.644 65.0506C113.004 64.3306 113.184 63.2906 113.184 61.9306C113.184 60.5706 113.004 59.5306 112.644 58.8106C112.297 58.0773 111.784 57.7106 111.104 57.7106C110.424 57.7106 109.904 58.0706 109.544 58.7906C109.184 59.5106 109.004 60.5573 109.004 61.9306C109.004 63.2773 109.184 64.3173 109.544 65.0506C109.904 65.7706 110.424 66.1306 111.104 66.1306ZM117.827 68.3506V65.1306H121.027V66.8706C121.027 67.5639 120.981 68.1839 120.887 68.7306C120.794 69.2906 120.647 69.8173 120.447 70.3106C120.247 70.8039 119.987 71.3173 119.667 71.8506H118.087C118.274 71.4506 118.441 71.0573 118.587 70.6706C118.734 70.2973 118.847 69.9173 118.927 69.5306C119.021 69.1439 119.067 68.7506 119.067 68.3506H117.827ZM128.044 66.2506L128.144 68.6706C127.038 68.6706 126.064 68.4306 125.224 67.9506C124.398 67.4573 123.751 66.7106 123.284 65.7106C122.818 64.6973 122.584 63.4373 122.584 61.9306C122.584 59.7839 123.064 58.1239 124.024 56.9506C124.998 55.7639 126.344 55.1706 128.064 55.1706C129.358 55.1706 130.444 55.5239 131.324 56.2306C132.218 56.9373 132.804 57.9573 133.084 59.2906H129.964C129.791 58.7439 129.531 58.3439 129.184 58.0906C128.838 57.8373 128.424 57.7106 127.944 57.7106C127.144 57.7106 126.531 58.0706 126.104 58.7906C125.691 59.5106 125.484 60.5573 125.484 61.9306C125.484 62.9973 125.564 63.8506 125.724 64.4906C125.884 65.1173 126.151 65.5706 126.524 65.8506C126.911 66.1173 127.418 66.2506 128.044 66.2506ZM128.144 68.6706C127.358 68.6706 126.664 68.4906 126.064 68.1306C125.478 67.7706 125.018 67.2639 124.684 66.6106C124.351 65.9439 124.184 65.1706 124.184 64.2906C124.184 63.4239 124.364 62.6639 124.724 62.0106C125.098 61.3573 125.604 60.8573 126.244 60.5106C126.884 60.1506 127.584 59.9706 128.344 59.9706C129.304 59.9706 130.144 60.1373 130.864 60.4706C131.584 60.8039 132.144 61.2906 132.544 61.9306C132.958 62.5573 133.164 63.3106 133.164 64.1906C133.164 65.1106 132.944 65.9106 132.504 66.5906C132.078 67.2573 131.484 67.7706 130.724 68.1306C129.978 68.4906 129.118 68.6706 128.144 68.6706ZM128.044 66.1906C128.658 66.1906 129.138 66.0306 129.484 65.7106C129.844 65.3773 130.024 64.9106 130.024 64.3106C130.024 63.9106 129.938 63.5706 129.764 63.2906C129.604 62.9973 129.378 62.7773 129.084 62.6306C128.791 62.4706 128.444 62.3906 128.044 62.3906C127.444 62.3906 126.964 62.5573 126.604 62.8906C126.258 63.2239 126.084 63.6973 126.084 64.3106C126.084 64.8973 126.258 65.3573 126.604 65.6906C126.964 66.0239 127.444 66.1906 128.044 66.1906ZM139.268 68.6706C137.628 68.6706 136.348 68.0773 135.428 66.8906C134.508 65.7039 134.048 64.0506 134.048 61.9306C134.048 59.7839 134.508 58.1239 135.428 56.9506C136.348 55.7639 137.628 55.1706 139.268 55.1706C140.908 55.1706 142.188 55.7639 143.108 56.9506C144.028 58.1373 144.488 59.7973 144.488 61.9306C144.488 64.0639 144.028 65.7239 143.108 66.9106C142.188 68.0839 140.908 68.6706 139.268 68.6706ZM139.268 66.1306C139.948 66.1306 140.461 65.7706 140.808 65.0506C141.168 64.3306 141.348 63.2906 141.348 61.9306C141.348 60.5706 141.168 59.5306 140.808 58.8106C140.461 58.0773 139.948 57.7106 139.268 57.7106C138.588 57.7106 138.068 58.0706 137.708 58.7906C137.348 59.5106 137.168 60.5573 137.168 61.9306C137.168 63.2773 137.348 64.3173 137.708 65.0506C138.068 65.7706 138.588 66.1306 139.268 66.1306ZM150.791 68.6706C149.151 68.6706 147.871 68.0773 146.951 66.8906C146.031 65.7039 145.571 64.0506 145.571 61.9306C145.571 59.7839 146.031 58.1239 146.951 56.9506C147.871 55.7639 149.151 55.1706 150.791 55.1706C152.431 55.1706 153.711 55.7639 154.631 56.9506C155.551 58.1373 156.011 59.7973 156.011 61.9306C156.011 64.0639 155.551 65.7239 154.631 66.9106C153.711 68.0839 152.431 68.6706 150.791 68.6706ZM150.791 66.1306C151.471 66.1306 151.985 65.7706 152.331 65.0506C152.691 64.3306 152.871 63.2906 152.871 61.9306C152.871 60.5706 152.691 59.5306 152.331 58.8106C151.985 58.0773 151.471 57.7106 150.791 57.7106C150.111 57.7106 149.591 58.0706 149.231 58.7906C148.871 59.5106 148.691 60.5573 148.691 61.9306C148.691 63.2773 148.871 64.3173 149.231 65.0506C149.591 65.7706 150.111 66.1306 150.791 66.1306Z" fill="black"/>
<rect x="53.3828" y="88.6377" width="104" height="29.0484" rx="14.5242" fill="#BCA25E"/>
<path d="M91.4115 106.238C90.7893 106.238 90.2845 106.156 89.8972 105.991C89.5098 105.819 89.2178 105.584 89.0209 105.286C88.8304 104.987 88.7193 104.651 88.6876 104.276H89.4305C89.4495 104.581 89.5511 104.829 89.7352 105.019C89.9194 105.203 90.1607 105.34 90.4591 105.429C90.7639 105.518 91.0972 105.562 91.4591 105.562C91.9925 105.562 92.4147 105.47 92.7258 105.286C93.037 105.095 93.1925 104.816 93.1925 104.448C93.1925 104.226 93.1132 104.048 92.9544 103.914C92.802 103.775 92.5957 103.66 92.3353 103.572C92.0814 103.483 91.802 103.403 91.4972 103.333C91.1924 103.257 90.8845 103.178 90.5734 103.095C90.2686 103.013 89.9861 102.908 89.7257 102.781C89.4717 102.654 89.2654 102.492 89.1067 102.295C88.9543 102.092 88.8781 101.835 88.8781 101.524C88.8781 101.01 89.0749 100.59 89.4686 100.267C89.8686 99.9428 90.4623 99.7809 91.2496 99.7809C91.8083 99.7809 92.2687 99.8666 92.6306 100.038C92.9925 100.203 93.2624 100.422 93.4402 100.695C93.6243 100.968 93.7259 101.264 93.7449 101.581H93.0116C92.9735 101.264 92.8147 100.997 92.5354 100.781C92.256 100.559 91.8274 100.448 91.2496 100.448C90.894 100.448 90.6051 100.483 90.3829 100.552C90.1607 100.622 89.9892 100.714 89.8686 100.829C89.7543 100.937 89.6749 101.051 89.6305 101.171C89.5924 101.292 89.5733 101.406 89.5733 101.514C89.5733 101.724 89.6495 101.895 89.8019 102.029C89.9607 102.156 90.167 102.264 90.421 102.352C90.6813 102.435 90.967 102.511 91.2782 102.581C91.5893 102.651 91.8972 102.73 92.202 102.819C92.5131 102.902 92.7957 103.01 93.0497 103.143C93.31 103.27 93.5163 103.435 93.6687 103.638C93.8275 103.841 93.9068 104.102 93.9068 104.419C93.9068 105.003 93.6846 105.454 93.2401 105.772C92.7957 106.083 92.1861 106.238 91.4115 106.238ZM96.8711 106.238C96.4076 106.238 96.0012 106.13 95.652 105.914C95.3091 105.692 95.0425 105.394 94.852 105.019C94.6615 104.645 94.5662 104.232 94.5662 103.781C94.5662 103.324 94.6615 102.911 94.852 102.543C95.0425 102.168 95.3091 101.873 95.652 101.657C96.0012 101.435 96.4076 101.324 96.8711 101.324C97.2648 101.324 97.6013 101.4 97.8807 101.552C98.1664 101.705 98.3981 101.911 98.5759 102.171V101.4H99.2902V106.162H98.5759V105.4C98.3981 105.654 98.1664 105.857 97.8807 106.01C97.6013 106.162 97.2648 106.238 96.8711 106.238ZM96.9663 105.591C97.3219 105.591 97.6203 105.508 97.8616 105.343C98.1092 105.178 98.2965 104.959 98.4235 104.686C98.5505 104.406 98.614 104.105 98.614 103.781C98.614 103.451 98.5505 103.149 98.4235 102.876C98.2965 102.603 98.1092 102.384 97.8616 102.219C97.6203 102.054 97.3219 101.971 96.9663 101.971C96.6171 101.971 96.3155 102.054 96.0615 102.219C95.8076 102.384 95.6139 102.603 95.4806 102.876C95.3472 103.149 95.2806 103.451 95.2806 103.781C95.2806 104.105 95.3472 104.406 95.4806 104.686C95.6139 104.959 95.8076 105.178 96.0615 105.343C96.3155 105.508 96.6171 105.591 96.9663 105.591ZM101.821 106.162L99.9543 101.4H100.735L102.24 105.4L103.735 101.4H104.516L102.659 106.162H101.821ZM105.157 100.6V99.6666H105.928V100.6H105.157ZM105.186 106.162V101.4H105.9V106.162H105.186ZM107.139 106.162V101.4H107.853V102.143C108.025 101.914 108.234 101.721 108.482 101.562C108.729 101.403 109.047 101.324 109.434 101.324C109.764 101.324 110.072 101.403 110.358 101.562C110.65 101.714 110.885 101.946 111.063 102.257C111.247 102.562 111.339 102.94 111.339 103.391V106.162H110.625V103.41C110.625 102.978 110.501 102.632 110.253 102.371C110.006 102.105 109.685 101.971 109.291 101.971C109.025 101.971 108.783 102.032 108.567 102.152C108.352 102.273 108.177 102.445 108.044 102.667C107.917 102.883 107.853 103.133 107.853 103.419V106.162H107.139ZM114.714 108.124C114.118 108.124 113.632 107.994 113.257 107.734C112.883 107.48 112.629 107.146 112.495 106.734H113.286C113.381 106.968 113.546 107.149 113.781 107.276C114.016 107.41 114.314 107.476 114.676 107.476C115.222 107.476 115.619 107.346 115.867 107.086C116.121 106.832 116.248 106.461 116.248 105.972V105.314C116.07 105.568 115.838 105.775 115.552 105.934C115.273 106.086 114.937 106.162 114.543 106.162C114.079 106.162 113.673 106.057 113.324 105.848C112.981 105.632 112.714 105.34 112.524 104.972C112.333 104.603 112.238 104.194 112.238 103.743C112.238 103.286 112.333 102.876 112.524 102.514C112.714 102.146 112.981 101.857 113.324 101.648C113.673 101.432 114.079 101.324 114.543 101.324C114.937 101.324 115.273 101.4 115.552 101.552C115.838 101.698 116.07 101.902 116.248 102.162V101.4H116.962V106.019C116.962 106.699 116.765 107.219 116.372 107.581C115.984 107.943 115.432 108.124 114.714 108.124ZM114.638 105.514C114.987 105.514 115.283 105.435 115.524 105.276C115.772 105.118 115.959 104.905 116.086 104.638C116.219 104.365 116.286 104.067 116.286 103.743C116.286 103.413 116.219 103.114 116.086 102.848C115.959 102.581 115.772 102.368 115.524 102.21C115.283 102.051 114.987 101.971 114.638 101.971C114.289 101.971 113.987 102.051 113.733 102.21C113.479 102.368 113.286 102.581 113.152 102.848C113.019 103.114 112.952 103.413 112.952 103.743C112.952 104.067 113.019 104.365 113.152 104.638C113.286 104.905 113.479 105.118 113.733 105.276C113.987 105.435 114.289 105.514 114.638 105.514ZM119.931 106.238C119.493 106.238 119.121 106.165 118.817 106.019C118.518 105.873 118.29 105.683 118.131 105.448C117.972 105.207 117.883 104.946 117.864 104.667H118.607C118.626 104.826 118.68 104.981 118.769 105.133C118.864 105.28 119.007 105.4 119.198 105.495C119.388 105.584 119.636 105.629 119.941 105.629C120.036 105.629 120.153 105.619 120.293 105.6C120.433 105.581 120.566 105.546 120.693 105.495C120.826 105.445 120.937 105.368 121.026 105.267C121.115 105.165 121.16 105.035 121.16 104.876C121.16 104.68 121.083 104.527 120.931 104.419C120.779 104.311 120.582 104.229 120.341 104.172C120.099 104.108 119.842 104.048 119.569 103.991C119.302 103.933 119.048 103.86 118.807 103.772C118.566 103.676 118.369 103.546 118.217 103.381C118.064 103.21 117.988 102.978 117.988 102.686C117.988 102.254 118.144 101.921 118.455 101.686C118.772 101.444 119.239 101.324 119.855 101.324C120.274 101.324 120.614 101.39 120.874 101.524C121.141 101.651 121.341 101.816 121.474 102.019C121.614 102.222 121.696 102.441 121.722 102.676H120.998C120.972 102.473 120.871 102.298 120.693 102.152C120.522 102.006 120.236 101.933 119.836 101.933C119.08 101.933 118.702 102.162 118.702 102.619C118.702 102.81 118.779 102.956 118.931 103.057C119.083 103.159 119.28 103.241 119.521 103.305C119.763 103.362 120.017 103.419 120.283 103.476C120.556 103.527 120.814 103.6 121.055 103.695C121.296 103.791 121.493 103.927 121.645 104.105C121.798 104.276 121.874 104.511 121.874 104.81C121.874 105.273 121.696 105.629 121.341 105.876C120.991 106.118 120.522 106.238 119.931 106.238Z" fill="white"/>
</g>
<defs>
<filter id="filter0_dddd_725_11727" x="0.861162" y="0.580336" width="209.043" height="234.404" filterUnits="userSpaceOnUse" color-interpolation-filters="sRGB">
<feFlood flood-opacity="0" result="BackgroundImageFix"/>
<feColorMatrix in="SourceAlpha" type="matrix" values="0 0 0 0 0 0 0 0 0 0 0 0 0 0 0 0 0 0 127 0" result="hardAlpha"/>
<feOffset dy="4.43627"/>
<feGaussianBlur stdDeviation="4.43627"/>
<feColorMatrix type="matrix" values="0 0 0 0 0.611765 0 0 0 0 0.611765 0 0 0 0 0.611765 0 0 0 0.1 0"/>
<feBlend mode="normal" in2="BackgroundImageFix" result="effect1_dropShadow_725_11727"/>
<feColorMatrix in="SourceAlpha" type="matrix" values="0 0 0 0 0 0 0 0 0 0 0 0 0 0 0 0 0 0 127 0" result="hardAlpha"/>
<feOffset dy="16.2663"/>
<feGaussianBlur stdDeviation="8.13315"/>
<feColorMatrix type="matrix" values="0 0 0 0 0.611765 0 0 0 0 0.611765 0 0 0 0 0.611765 0 0 0 0.09 0"/>
<feBlend mode="normal" in2="effect1_dropShadow_725_11727" result="effect2_dropShadow_725_11727"/>
<feColorMatrix in="SourceAlpha" type="matrix" values="0 0 0 0 0 0 0 0 0 0 0 0 0 0 0 0 0 0 127 0" result="hardAlpha"/>
<feOffset dy="35.4901"/>
<feGaussianBlur stdDeviation="11.0907"/>
<feColorMatrix type="matrix" values="0 0 0 0 0.611765 0 0 0 0 0.611765 0 0 0 0 0.611765 0 0 0 0.05 0"/>
<feBlend mode="normal" in2="effect2_dropShadow_725_11727" result="effect3_dropShadow_725_11727"/>
<feColorMatrix in="SourceAlpha" type="matrix" values="0 0 0 0 0 0 0 0 0 0 0 0 0 0 0 0 0 0 127 0" result="hardAlpha"/>
<feOffset dy="63.5865"/>
<feGaussianBlur stdDeviation="12.5694"/>
<feColorMatrix type="matrix" values="0 0 0 0 0.611765 0 0 0 0 0.611765 0 0 0 0 0.611765 0 0 0 0.01 0"/>
<feBlend mode="normal" in2="effect3_dropShadow_725_11727" result="effect4_dropShadow_725_11727"/>
<feBlend mode="normal" in="SourceGraphic" in2="effect4_dropShadow_725_11727" result="shape"/>
</filter>
</defs>
</svg>
