<svg width="50" height="51" viewBox="0 0 50 51" fill="none" xmlns="http://www.w3.org/2000/svg">
<rect y="0.5" width="50" height="50" rx="25" fill="#F4E5E6"/>
<path fill-rule="evenodd" clip-rule="evenodd" d="M27.0092 32.503L27.0152 30.5C27.0152 30.2341 27.1209 29.9791 27.3089 29.7911C27.4969 29.6031 27.7519 29.4975 28.0177 29.4975C28.2836 29.4975 28.5386 29.6031 28.7266 29.7911C28.9146 29.9791 29.0202 30.2341 29.0202 30.5V32.477C29.0202 32.958 29.0202 33.199 29.1742 33.347C29.3292 33.494 29.5642 33.484 30.0372 33.464C31.9002 33.385 33.0452 33.134 33.8512 32.328C34.6612 31.522 34.9122 30.377 34.9912 28.511C35.0062 28.141 35.0142 27.955 34.9452 27.832C34.8752 27.709 34.6002 27.555 34.0482 27.246C33.7373 27.0727 33.4783 26.8194 33.298 26.5125C33.1177 26.2055 33.0226 25.856 33.0226 25.5C33.0226 25.144 33.1177 24.7945 33.298 24.4875C33.4783 24.1806 33.7373 23.9273 34.0482 23.754C34.6002 23.446 34.8762 23.291 34.9452 23.168C35.0142 23.045 35.0062 22.86 34.9902 22.489C34.9122 20.623 34.6602 19.479 33.8512 18.672C32.9742 17.796 31.6962 17.575 29.5292 17.519C29.4629 17.5173 29.3968 17.5288 29.335 17.553C29.2732 17.5772 29.2169 17.6136 29.1694 17.6599C29.1218 17.7062 29.0841 17.7616 29.0583 17.8228C29.0325 17.8839 29.0192 17.9496 29.0192 18.016V20.5C29.0192 20.7659 28.9136 21.0209 28.7256 21.2089C28.5376 21.3969 28.2826 21.5025 28.0167 21.5025C27.7509 21.5025 27.4959 21.3969 27.3079 21.2089C27.1199 21.0209 27.0142 20.7659 27.0142 20.5L27.0072 17.999C27.007 17.8666 26.9542 17.7396 26.8604 17.6461C26.7667 17.5525 26.6397 17.5 26.5072 17.5H22.9952C19.2152 17.5 17.3252 17.5 16.1502 18.672C15.3402 19.478 15.0892 20.623 15.0102 22.489C14.9952 22.859 14.9872 23.045 15.0562 23.168C15.1262 23.291 15.4012 23.446 15.9532 23.754C16.2642 23.9273 16.5232 24.1806 16.7035 24.4875C16.8838 24.7945 16.9788 25.144 16.9788 25.5C16.9788 25.856 16.8838 26.2055 16.7035 26.5125C16.5232 26.8194 16.2642 27.0727 15.9532 27.246C15.4012 27.555 15.1252 27.709 15.0562 27.832C14.9872 27.955 14.9952 28.14 15.0112 28.51C15.0892 30.377 15.3412 31.522 16.1502 32.328C17.3252 33.5 19.2152 33.5 22.9962 33.5H26.0062C26.4782 33.5 26.7132 33.5 26.8602 33.354C27.0072 33.208 27.0082 32.974 27.0092 32.503ZM29.0192 26.5V24.5C29.0192 24.2341 28.9136 23.9791 28.7256 23.7911C28.5376 23.6031 28.2826 23.4975 28.0167 23.4975C27.7509 23.4975 27.4959 23.6031 27.3079 23.7911C27.1199 23.9791 27.0142 24.2341 27.0142 24.5V26.5C27.0142 26.766 27.1199 27.0211 27.308 27.2092C27.4961 27.3973 27.7512 27.503 28.0172 27.503C28.2832 27.503 28.5384 27.3973 28.7265 27.2092C28.9146 27.0211 29.0192 26.766 29.0192 26.5Z" fill="#AD1F24"/>
</svg>
