<svg width="97" height="97" viewBox="0 0 97 97" fill="none" xmlns="http://www.w3.org/2000/svg">
<rect x="0.308594" y="0.5" width="96" height="96" rx="48" fill="#EDE9D4"/>
<path d="M40.841 48.4997C40.841 45.8763 41.0052 43.3686 41.3074 41.0363H55.3014C55.5999 43.3686 55.7678 45.8763 55.7678 48.4997C55.7678 51.1231 55.6036 53.6308 55.3014 55.9631H41.3074C40.9961 53.4875 40.8404 50.9948 40.841 48.4997ZM37.5459 55.9631C37.2537 53.4861 37.1079 50.9939 37.1092 48.4997C37.1092 45.9136 37.2585 43.4059 37.5459 41.0363H27.1829C26.3394 43.434 25.9103 45.9579 25.9141 48.4997C25.9141 51.1156 26.3619 53.6271 27.1866 55.9631H37.5459ZM28.9107 59.6948H38.128C38.5945 62.1391 39.2177 64.3744 39.9677 66.3224C40.4678 67.6247 41.035 68.8301 41.6731 69.8936C36.2898 68.2162 31.7341 64.5756 28.9107 59.6948ZM41.9306 59.6948H54.6782C54.3174 61.496 53.8094 63.2646 53.1594 64.9827C52.3645 67.0501 51.4614 68.5987 50.5546 69.5951C49.6478 70.5915 48.8865 70.89 48.3044 70.89C47.7223 70.89 46.961 70.5915 46.0542 69.5951C45.1474 68.5987 44.2443 67.0501 43.4494 64.9827C42.7994 63.2646 42.2914 61.496 41.9306 59.6948ZM58.4845 59.6948C58.0655 61.9538 57.4487 64.1715 56.6411 66.3224C56.1791 67.5608 55.6084 68.7559 54.9357 69.8936C60.319 68.2162 64.8747 64.5756 67.6981 59.6948H58.4845ZM69.4185 55.9631C70.2645 53.5658 70.6961 51.0419 70.6947 48.4997C70.6973 45.9577 70.267 43.4338 69.4222 41.0363H59.063C59.3466 43.4059 59.4996 45.9136 59.4996 48.4997C59.4996 51.0858 59.3503 53.5935 59.063 55.9631H69.4185ZM53.1631 32.0167C53.7564 33.5616 54.2714 35.3379 54.6819 37.3045H41.9306C42.3411 35.3379 42.8561 33.5616 43.4494 32.0167C44.2443 29.9493 45.1474 28.4006 46.0542 27.4043C46.961 26.4079 47.7223 26.1094 48.3044 26.1094C48.8865 26.1094 49.6478 26.4079 50.5546 27.4043C51.4614 28.4006 52.3645 29.9493 53.1594 32.0167M58.4845 37.3045H67.7019C64.8775 32.423 60.3204 28.7824 54.9357 27.1057C55.5701 28.1693 56.141 29.3746 56.6411 30.677C57.3911 32.625 58.0143 34.8565 58.4845 37.3045ZM28.9107 37.3045H38.128C38.5458 35.0457 39.1614 32.828 39.9677 30.677C40.4678 29.3746 41.035 28.1693 41.6731 27.1057C36.2898 28.7832 31.7341 32.4237 28.9107 37.3045Z" fill="#A6812C"/>
</svg>
