<svg width="50" height="51" viewBox="0 0 50 51" fill="none" xmlns="http://www.w3.org/2000/svg">
<rect y="0.609375" width="50" height="50" rx="25" fill="#F4E5E6"/>
<path d="M25 10.9434L13 16.2767V24.2767C13 31.6767 18.12 38.5967 25 40.2767C31.88 38.5967 37 31.6767 37 24.2767V16.2767L25 10.9434ZM25 18.9434C26.8667 18.9434 28.7333 20.41 28.7333 22.2767V24.2767C29.5333 24.2767 30.3333 25.0767 30.3333 26.01V30.6767C30.3333 31.4767 29.5333 32.2767 28.6 32.2767H21.2667C20.4667 32.2767 19.6667 31.4767 19.6667 30.5434V25.8767C19.6667 25.0767 20.4667 24.2767 21.2667 24.2767V22.2767C21.2667 20.41 23.1333 18.9434 25 18.9434ZM25 20.5434C23.9333 20.5434 23 21.21 23 22.2767V24.2767H27V22.2767C27 21.21 26.0667 20.5434 25 20.5434Z" fill="#AD1F24"/>
</svg>
