<svg width="50" height="51" viewBox="0 0 50 51" fill="none" xmlns="http://www.w3.org/2000/svg">
<rect y="0.609375" width="50" height="50" rx="25" fill="#F4E5E6"/>
<mask id="mask0_1297_6784" style="mask-type:luminance" maskUnits="userSpaceOnUse" x="11" y="14" width="28" height="23">
<path d="M27.6644 14.9434H22.3311C17.3031 14.9434 14.7884 14.9434 13.2271 16.506C12.1017 17.63 11.7871 19.2487 11.6991 21.9434H38.2964C38.2084 19.2487 37.8937 17.63 36.7684 16.506C35.2071 14.9434 32.6924 14.9434 27.6644 14.9434ZM22.3311 36.2767H27.6644C32.6924 36.2767 35.2071 36.2767 36.7684 34.714C38.3297 33.1514 38.3311 30.638 38.3311 25.61C38.3311 25.0216 38.3302 24.466 38.3284 23.9434H11.6671C11.6644 24.466 11.6635 25.0216 11.6644 25.61C11.6644 30.638 11.6644 33.1527 13.2271 34.714C14.7897 36.2754 17.3031 36.2767 22.3311 36.2767Z" fill="white"/>
<path fill-rule="evenodd" clip-rule="evenodd" d="M16 30.9434C16 30.6781 16.1054 30.4238 16.2929 30.2363C16.4804 30.0487 16.7348 29.9434 17 29.9434H22.3333C22.5985 29.9434 22.8529 30.0487 23.0404 30.2363C23.228 30.4238 23.3333 30.6781 23.3333 30.9434C23.3333 31.2086 23.228 31.4629 23.0404 31.6505C22.8529 31.838 22.5985 31.9434 22.3333 31.9434H17C16.7348 31.9434 16.4804 31.838 16.2929 31.6505C16.1054 31.4629 16 31.2086 16 30.9434ZM24.6667 30.9434C24.6667 30.6781 24.772 30.4238 24.9596 30.2363C25.1471 30.0487 25.4015 29.9434 25.6667 29.9434H27.6667C27.9319 29.9434 28.1862 30.0487 28.3738 30.2363C28.5613 30.4238 28.6667 30.6781 28.6667 30.9434C28.6667 31.2086 28.5613 31.4629 28.3738 31.6505C28.1862 31.838 27.9319 31.9434 27.6667 31.9434H25.6667C25.4015 31.9434 25.1471 31.838 24.9596 31.6505C24.772 31.4629 24.6667 31.2086 24.6667 30.9434Z" fill="black"/>
</mask>
<g mask="url(#mask0_1297_6784)">
<path d="M9 9.60938H41V41.6094H9V9.60938Z" fill="#AD1F24"/>
</g>
</svg>
