<svg width="50" height="51" viewBox="0 0 50 51" fill="none" xmlns="http://www.w3.org/2000/svg">
<rect y="0.609375" width="50" height="50" rx="25" fill="#F4E5E6"/>
<path d="M14 17.3594C14 16.63 14.2897 15.9306 14.8055 15.4148C15.3212 14.8991 16.0207 14.6094 16.75 14.6094H28.25C28.6111 14.6094 28.9687 14.6805 29.3024 14.8187C29.636 14.9569 29.9392 15.1595 30.1945 15.4148C30.4499 15.6702 30.6525 15.9734 30.7907 16.307C30.9289 16.6406 31 16.9982 31 17.3594V28.6094H36V32.8594C36 33.8539 35.6049 34.8078 34.9017 35.511C34.1984 36.2143 33.2446 36.6094 32.25 36.6094H17.75C16.7554 36.6094 15.8016 36.2143 15.0983 35.511C14.3951 34.8078 14 33.8539 14 32.8594V17.3594ZM31 35.1094H32.25C32.8467 35.1094 33.419 34.8723 33.841 34.4504C34.2629 34.0284 34.5 33.4561 34.5 32.8594V30.1094H31V35.1094ZM18 20.3594C18 20.7734 18.336 21.1094 18.75 21.1094H26.25C26.4489 21.1094 26.6397 21.0304 26.7803 20.8897C26.921 20.7491 27 20.5583 27 20.3594C27 20.1605 26.921 19.9697 26.7803 19.829C26.6397 19.6884 26.4489 19.6094 26.25 19.6094H18.75C18.5511 19.6094 18.3603 19.6884 18.2197 19.829C18.079 19.9697 18 20.1605 18 20.3594ZM18.75 24.6094C18.5511 24.6094 18.3603 24.6884 18.2197 24.829C18.079 24.9697 18 25.1605 18 25.3594C18 25.5583 18.079 25.7491 18.2197 25.8897C18.3603 26.0304 18.5511 26.1094 18.75 26.1094H26.25C26.4489 26.1094 26.6397 26.0304 26.7803 25.8897C26.921 25.7491 27 25.5583 27 25.3594C27 25.1605 26.921 24.9697 26.7803 24.829C26.6397 24.6884 26.4489 24.6094 26.25 24.6094H18.75ZM18 30.3594C18 30.7734 18.336 31.1094 18.75 31.1094H22.25C22.4489 31.1094 22.6397 31.0304 22.7803 30.8897C22.921 30.7491 23 30.5583 23 30.3594C23 30.1605 22.921 29.9697 22.7803 29.829C22.6397 29.6884 22.4489 29.6094 22.25 29.6094H18.75C18.5511 29.6094 18.3603 29.6884 18.2197 29.829C18.079 29.9697 18 30.1605 18 30.3594Z" fill="#AD1F24"/>
</svg>
