<svg width="50" height="51" viewBox="0 0 50 51" fill="none" xmlns="http://www.w3.org/2000/svg">
<rect y="0.609375" width="50" height="50" rx="25" fill="#F4E5E6"/>
<g clip-path="url(#clip0_1297_6771)">
<path d="M30.25 13.6094H19.75C19.1533 13.6094 18.581 13.8464 18.159 14.2684C17.7371 14.6903 17.5 15.2626 17.5 15.8594V35.3594C17.5 35.9561 17.7371 36.5284 18.159 36.9504C18.581 37.3723 19.1533 37.6094 19.75 37.6094H30.25C30.8467 37.6094 31.419 37.3723 31.841 36.9504C32.2629 36.5284 32.5 35.9561 32.5 35.3594V15.8594C32.5 15.2626 32.2629 14.6903 31.841 14.2684C31.419 13.8464 30.8467 13.6094 30.25 13.6094ZM25 36.1094C24.8033 36.1092 24.6085 36.0704 24.4268 35.995C24.2451 35.9196 24.0801 35.8091 23.941 35.6699C23.6603 35.3888 23.5027 35.0077 23.503 34.6104C23.5031 34.4137 23.542 34.2189 23.6174 34.0372C23.6928 33.8555 23.8033 33.6904 23.9425 33.5514C24.2236 33.2707 24.6047 33.1131 25.002 33.1134C25.3993 33.1136 25.7802 33.2717 26.061 33.5528C26.3417 33.834 26.4993 34.2151 26.499 34.6124C26.4987 35.0097 26.3407 35.3906 26.0595 35.6713C25.7784 35.9521 25.3973 36.1096 25 36.1094Z" fill="#AD1F24"/>
</g>
<defs>
<clipPath id="clip0_1297_6771">
<rect width="15" height="24" fill="white" transform="translate(17.5 13.6094)"/>
</clipPath>
</defs>
</svg>
