<svg width="25" height="25" viewBox="0 0 25 25" fill="none" xmlns="http://www.w3.org/2000/svg">
<g clip-path="url(#clip0_1297_6837)">
<path fill-rule="evenodd" clip-rule="evenodd" d="M0.5 12.6113C0.5 9.42873 1.76428 6.37648 4.01472 4.12605C6.26516 1.87561 9.3174 0.611328 12.5 0.611328C15.6826 0.611328 18.7348 1.87561 20.9853 4.12605C23.2357 6.37648 24.5 9.42873 24.5 12.6113C24.5 15.7939 23.2357 18.8462 20.9853 21.0966C18.7348 23.347 15.6826 24.6113 12.5 24.6113C9.3174 24.6113 6.26516 23.347 4.01472 21.0966C1.76428 18.8462 0.5 15.7939 0.5 12.6113ZM11.8152 17.7473L18.724 9.11053L17.476 8.11213L11.5848 15.4737L7.412 11.9969L6.388 13.2257L11.8152 17.7473Z" fill="#AF1F23"/>
</g>
<defs>
<clipPath id="clip0_1297_6837">
<rect width="24" height="24" fill="white" transform="translate(0.5 0.611328)"/>
</clipPath>
</defs>
</svg>
